<?xml version="1.0" encoding="UTF-8" standalone="no"?>
<!DOCTYPE svg PUBLIC "-//W3C//DTD SVG 1.1//EN" "http://www.w3.org/Graphics/SVG/1.1/DTD/svg11.dtd">
<svg width="50" height="50" viewBox="0 0 50 50" version="1.1" xmlns="http://www.w3.org/2000/svg" xmlns:xlink="http://www.w3.org/1999/xlink" xml:space="preserve" xmlns:serif="http://www.serif.com/" style="fill-rule:evenodd;clip-rule:evenodd;stroke-linejoin:round;stroke-miterlimit:2;">
    <g transform="matrix(0.0714286,0,0,0.0714286,-3.57143,-3.57143)">
        <path d="M50,303.333C50,214.658 50,170.321 67.257,136.451C82.437,106.659 106.659,82.437 136.451,67.257C170.321,50 214.658,50 303.333,50L496.668,50C585.343,50 629.68,50 663.547,67.257C693.34,82.437 717.563,106.659 732.742,136.451C750,170.321 750,214.658 750,303.333L750,496.668C750,585.343 750,629.68 732.742,663.547C717.563,693.34 693.34,717.563 663.547,732.742C629.68,750 585.343,750 496.668,750L303.333,750C214.658,750 170.321,750 136.451,732.742C106.659,717.563 82.437,693.34 67.257,663.547C50,629.68 50,585.343 50,496.668L50,303.333Z" style="fill:white;fill-rule:nonzero;"/>
    </g>
    <g transform="matrix(0.0714286,0,0,0.0714286,-3.57143,-3.57143)">
        <path d="M50,303.333C50,214.658 50,170.321 67.257,136.451C82.437,106.659 106.659,82.437 136.451,67.257C170.321,50 214.658,50 303.333,50L496.668,50C585.343,50 629.68,50 663.547,67.257C693.34,82.437 717.563,106.659 732.742,136.451C750,170.321 750,214.658 750,303.333L750,496.668C750,585.343 750,629.68 732.742,663.547C717.563,693.34 693.34,717.563 663.547,732.742C629.68,750 585.343,750 496.668,750L303.333,750C214.658,750 170.321,750 136.451,732.742C106.659,717.563 82.437,693.34 67.257,663.547C50,629.68 50,585.343 50,496.668L50,303.333Z" style="fill:url(#_Radial1);fill-rule:nonzero;"/>
    </g>
    <g transform="matrix(0.0714286,0,0,0.0714286,-3.57143,-3.57143)">
        <path d="M50,303.333C50,214.658 50,170.321 67.257,136.451C82.437,106.659 106.659,82.437 136.451,67.257C170.321,50 214.658,50 303.333,50L496.668,50C585.343,50 629.68,50 663.547,67.257C693.34,82.437 717.563,106.659 732.742,136.451C750,170.321 750,214.658 750,303.333L750,496.668C750,585.343 750,629.68 732.742,663.547C717.563,693.34 693.34,717.563 663.547,732.742C629.68,750 585.343,750 496.668,750L303.333,750C214.658,750 170.321,750 136.451,732.742C106.659,717.563 82.437,693.34 67.257,663.547C50,629.68 50,585.343 50,496.668L50,303.333Z" style="fill:url(#_Radial2);fill-rule:nonzero;"/>
    </g>
    <g transform="matrix(0.0714286,0,0,0.0714286,-3.57143,-3.57143)">
        <path d="M50,303.333C50,214.658 50,170.321 67.257,136.451C82.437,106.659 106.659,82.437 136.451,67.257C170.321,50 214.658,50 303.333,50L496.668,50C585.343,50 629.68,50 663.547,67.257C693.34,82.437 717.563,106.659 732.742,136.451C750,170.321 750,214.658 750,303.333L750,496.668C750,585.343 750,629.68 732.742,663.547C717.563,693.34 693.34,717.563 663.547,732.742C629.68,750 585.343,750 496.668,750L303.333,750C214.658,750 170.321,750 136.451,732.742C106.659,717.563 82.437,693.34 67.257,663.547C50,629.68 50,585.343 50,496.668L50,303.333Z" style="fill:url(#_Radial3);fill-rule:nonzero;"/>
    </g>
    <g transform="matrix(0.0714286,0,0,0.0714286,-3.57143,-3.57143)">
        <path d="M50,303.333C50,214.658 50,170.321 67.257,136.451C82.437,106.659 106.659,82.437 136.451,67.257C170.321,50 214.658,50 303.333,50L496.668,50C585.343,50 629.68,50 663.547,67.257C693.34,82.437 717.563,106.659 732.742,136.451C750,170.321 750,214.658 750,303.333L750,496.668C750,585.343 750,629.68 732.742,663.547C717.563,693.34 693.34,717.563 663.547,732.742C629.68,750 585.343,750 496.668,750L303.333,750C214.658,750 170.321,750 136.451,732.742C106.659,717.563 82.437,693.34 67.257,663.547C50,629.68 50,585.343 50,496.668L50,303.333Z" style="fill:url(#_Radial4);fill-rule:nonzero;"/>
    </g>
    <g transform="matrix(0.0714286,0,0,0.0714286,-3.57143,-3.57143)">
        <path d="M50,303.333C50,214.658 50,170.321 67.257,136.451C82.437,106.659 106.659,82.437 136.451,67.257C170.321,50 214.658,50 303.333,50L496.668,50C585.343,50 629.68,50 663.547,67.257C693.34,82.437 717.563,106.659 732.742,136.451C750,170.321 750,214.658 750,303.333L750,496.668C750,585.343 750,629.68 732.742,663.547C717.563,693.34 693.34,717.563 663.547,732.742C629.68,750 585.343,750 496.668,750L303.333,750C214.658,750 170.321,750 136.451,732.742C106.659,717.563 82.437,693.34 67.257,663.547C50,629.68 50,585.343 50,496.668L50,303.333Z" style="fill:url(#_Radial5);fill-rule:nonzero;"/>
    </g>
    <g transform="matrix(0.0714286,0,0,0.0714286,-3.57143,-3.57143)">
        <path d="M50,303.333C50,214.658 50,170.321 67.257,136.451C82.437,106.659 106.659,82.437 136.451,67.257C170.321,50 214.658,50 303.333,50L496.668,50C585.343,50 629.68,50 663.547,67.257C693.34,82.437 717.563,106.659 732.742,136.451C750,170.321 750,214.658 750,303.333L750,496.668C750,585.343 750,629.68 732.742,663.547C717.563,693.34 693.34,717.563 663.547,732.742C629.68,750 585.343,750 496.668,750L303.333,750C214.658,750 170.321,750 136.451,732.742C106.659,717.563 82.437,693.34 67.257,663.547C50,629.68 50,585.343 50,496.668L50,303.333Z" style="fill:url(#_Radial6);fill-rule:nonzero;"/>
    </g>
    <g transform="matrix(0.0714286,0,0,0.0714286,-3.57143,-3.57143)">
        <path d="M50,303.333C50,214.658 50,170.321 67.257,136.451C82.437,106.659 106.659,82.437 136.451,67.257C170.321,50 214.658,50 303.333,50L496.668,50C585.343,50 629.68,50 663.547,67.257C693.34,82.437 717.563,106.659 732.742,136.451C750,170.321 750,214.658 750,303.333L750,496.668C750,585.343 750,629.68 732.742,663.547C717.563,693.34 693.34,717.563 663.547,732.742C629.68,750 585.343,750 496.668,750L303.333,750C214.658,750 170.321,750 136.451,732.742C106.659,717.563 82.437,693.34 67.257,663.547C50,629.68 50,585.343 50,496.668L50,303.333Z" style="fill:url(#_Radial7);fill-rule:nonzero;"/>
    </g>
    <g transform="matrix(0.0714286,0,0,0.0714286,-3.57143,-3.57143)">
        <path d="M611.758,260.9C574.715,219.918 522.508,196.884 468.258,197.183C415.173,197.183 361.215,220.517 326.508,258.208C320.09,257.61 313.673,257.012 307.548,257.012C203.423,257.012 138.965,346.755 138.965,429.918C139.257,474.79 156.173,517.868 186.215,550.772C217.715,585.175 261.465,604.62 307.548,604.62L468.258,604.62C577.34,604.62 666.008,512.782 666.008,400.303C665.423,348.55 646.173,298.893 611.758,260.9ZM304.34,575.303C227.048,575.303 164.631,510.987 164.631,431.712C164.631,353.037 226.756,289.02 303.758,288.422C337.883,288.422 373.758,299.79 396.508,324.62L455.133,386.243C464.758,396.415 464.465,412.568 454.547,422.44C444.633,432.313 428.883,432.013 419.258,421.84L362.09,361.415C324.758,328.508 268.465,332.695 236.382,370.987C222.382,387.44 214.798,408.68 214.798,430.518C214.798,480.772 256.508,523.252 305.798,523.252L317.173,523.252C333.508,546.585 379.298,575.303 379.298,575.303L304.34,575.303ZM590.757,523.85C559.548,557.355 516.383,576.2 471.173,576.5C428.298,576.5 384.548,556.755 351.008,522.652L274.59,443.68C264.965,433.508 265.258,417.355 274.883,407.482C279.548,402.695 285.673,400.303 292.383,400.303C299.09,400.303 305.508,402.995 310.173,408.08L386.298,486.158C410.508,510.987 441.423,525.048 471.173,525.048C502.965,525.048 533.298,511.585 555.173,487.652C577.632,464.02 590.173,432.313 590.173,399.405C590.173,331.798 536.508,277.055 470.59,276.755C445.508,276.755 424.798,281.84 404.383,296.5C392.823,284.645 367.923,272.868 356.548,270.472C388.048,240.26 427.423,225.602 470.59,225.602C564.215,225.602 639.757,303.38 640.048,399.405C640.048,445.772 622.548,490.645 590.757,523.85Z" style="fill:white;fill-rule:nonzero;"/>
    </g>
    <defs>
        <radialGradient id="_Radial1" cx="0" cy="0" r="1" gradientUnits="userSpaceOnUse" gradientTransform="matrix(285.833,305.128,-312.535,292.772,631.875,648.29)"><stop offset="0" style="stop-color:rgb(104,224,72);stop-opacity:1"/><stop offset="1" style="stop-color:rgb(92,224,73);stop-opacity:0"/></radialGradient>
        <radialGradient id="_Radial2" cx="0" cy="0" r="1" gradientUnits="userSpaceOnUse" gradientTransform="matrix(-313.54,288.678,-296.793,-322.353,160.833,645.3)"><stop offset="0" style="stop-color:rgb(48,140,254);stop-opacity:1"/><stop offset="1" style="stop-color:rgb(47,139,255);stop-opacity:0"/></radialGradient>
        <radialGradient id="_Radial3" cx="0" cy="0" r="1" gradientUnits="userSpaceOnUse" gradientTransform="matrix(247.917,34.4018,-36.1549,260.551,618.75,441.88)"><stop offset="0" style="stop-color:rgb(253,213,17);stop-opacity:1"/><stop offset="1" style="stop-color:rgb(253,210,13);stop-opacity:0"/></radialGradient>
        <radialGradient id="_Radial4" cx="0" cy="0" r="1" gradientUnits="userSpaceOnUse" gradientTransform="matrix(-223.124,-294.659,300.237,-227.348,169.583,302.778)"><stop offset="0" style="stop-color:rgb(249,40,194);stop-opacity:1"/><stop offset="1" style="stop-color:rgb(249,34,188);stop-opacity:0"/></radialGradient>
        <radialGradient id="_Radial5" cx="0" cy="0" r="1" gradientUnits="userSpaceOnUse" gradientTransform="matrix(166.25,-332.051,335.507,167.98,446.668,166.667)"><stop offset="0" style="stop-color:rgb(249,7,0);stop-opacity:1"/><stop offset="1" style="stop-color:rgb(249,7,0);stop-opacity:0"/></radialGradient>
        <radialGradient id="_Radial6" cx="0" cy="0" r="1" gradientUnits="userSpaceOnUse" gradientTransform="matrix(91.8749,-203.419,205.209,92.6835,712.082,151.71)"><stop offset="0" style="stop-color:rgb(251,66,0);stop-opacity:1"/><stop offset="1" style="stop-color:rgb(251,67,0);stop-opacity:0"/></radialGradient>
        <radialGradient id="_Radial7" cx="0" cy="0" r="1" gradientUnits="userSpaceOnUse" gradientTransform="matrix(-137.083,-143.59,147.146,-140.478,122.917,135.256)"><stop offset="0" style="stop-color:rgb(254,13,136);stop-opacity:1"/><stop offset="1" style="stop-color:rgb(254,13,136);stop-opacity:0"/></radialGradient>
    </defs>
</svg>
