<?xml version="1.0" encoding="UTF-8" standalone="no"?>
<!DOCTYPE svg PUBLIC "-//W3C//DTD SVG 1.1//EN" "http://www.w3.org/Graphics/SVG/1.1/DTD/svg11.dtd">
<svg width="50" height="50" viewBox="0 0 50 50" version="1.1" xmlns="http://www.w3.org/2000/svg" xmlns:xlink="http://www.w3.org/1999/xlink" xml:space="preserve" xmlns:serif="http://www.serif.com/" style="fill-rule:evenodd;clip-rule:evenodd;stroke-linejoin:round;stroke-miterlimit:2;">
    <g transform="matrix(0.0626334,0,0,0.0626334,-0.0536665,-5.05125e-11)">
        <path d="M760.572,698.403C760.721,726.846 748.656,753.985 727.44,772.93C706.225,791.875 677.898,800.804 649.653,797.449C598.827,789.928 561.58,745.698 562.819,694.332L562.819,103.789C561.591,52.368 598.929,8.117 649.823,0.673C678.04,-2.63 706.32,6.323 727.497,25.262C748.673,44.201 760.715,71.309 760.572,99.719L760.572,698.403Z" style="fill:rgb(249,171,0);fill-rule:nonzero;"/>
        <path d="M138.313,600.544C192.921,600.544 237.189,644.813 237.189,699.42C237.189,754.028 192.921,798.297 138.313,798.297C83.705,798.297 39.437,754.028 39.437,699.42C39.437,644.813 83.705,600.544 138.313,600.544ZM398.477,300.863C343.611,303.871 301.042,349.893 302.315,404.827L302.315,670.419C302.315,742.499 334.03,786.255 380.5,795.583C409.673,801.496 439.959,793.974 462.977,775.1C485.994,756.225 499.303,728 499.219,698.233L499.219,400.248C499.268,373.639 488.625,348.125 469.683,329.437C450.74,310.749 425.084,300.454 398.477,300.863Z" style="fill:rgb(227,116,0);fill-rule:nonzero;"/>
    </g>
</svg>
