<?xml version="1.0" encoding="UTF-8" standalone="no"?>
<!DOCTYPE svg PUBLIC "-//W3C//DTD SVG 1.1//EN" "http://www.w3.org/Graphics/SVG/1.1/DTD/svg11.dtd">
<svg width="50" height="50" viewBox="0 0 50 50" version="1.1" xmlns="http://www.w3.org/2000/svg" xmlns:xlink="http://www.w3.org/1999/xlink" xml:space="preserve" xmlns:serif="http://www.serif.com/" style="fill-rule:evenodd;clip-rule:evenodd;stroke-linejoin:round;stroke-miterlimit:2;">
    <g transform="matrix(0.0976944,0,0,0.0976944,1.11372,0)">
        <path d="M375.25,168.45L375.25,107.5C391.68,99.82 402.22,83.35 402.33,65.21L402.33,63.8C402.33,37.85 381.28,16.81 355.33,16.81L353.96,16.81C328.01,16.81 306.97,37.85 306.97,63.8L306.97,65.21C307.109,83.374 317.768,99.897 334.26,107.51L334.26,168.45C311.13,171.98 289.28,181.63 271.07,196.29L103.88,66.16C105.07,61.87 105.71,57.43 105.77,52.99L105.77,52.88C105.77,23.68 82.09,0 52.88,0C23.68,0 0,23.68 0,52.88C0,82.06 23.64,105.73 52.81,105.77C61.98,105.69 70.97,103.18 78.87,98.54L243.49,226.61C229.048,248.441 221.34,274.044 221.33,300.22C221.33,327.61 229.79,354.39 245.51,376.8L195.45,426.86C191.415,425.664 187.229,425.055 183.02,425.05C159.06,425.05 139.64,444.47 139.64,468.42C139.64,492.38 159.06,511.8 183.02,511.8C206.97,511.8 226.39,492.38 226.39,468.42L226.39,468.29C226.355,464.045 225.674,459.83 224.37,455.79L273.89,406.23C297.256,424.23 325.935,434 355.43,434.01C429.19,434.01 489,374.2 489,300.44C489,234.39 440.7,178.24 375.39,168.38L375.25,168.45ZM354.86,368.85C318.07,367.33 289.01,337.06 289.01,300.23C289.01,264.8 315.98,235.17 351.24,231.85L354.86,231.85C390.66,234.58 418.32,264.43 418.32,300.33C418.32,336.24 390.66,366.09 354.87,368.81L354.86,368.85Z" style="fill:rgb(255,122,89);fill-rule:nonzero;"/>
    </g>
</svg>
