<?xml version="1.0" encoding="UTF-8" standalone="no"?>
<!DOCTYPE svg PUBLIC "-//W3C//DTD SVG 1.1//EN" "http://www.w3.org/Graphics/SVG/1.1/DTD/svg11.dtd">
<svg width="100%" height="100%" viewBox="0 0 50 50" version="1.1" xmlns="http://www.w3.org/2000/svg" xmlns:xlink="http://www.w3.org/1999/xlink" xml:space="preserve" xmlns:serif="http://www.serif.com/" style="fill-rule:evenodd;clip-rule:evenodd;stroke-linejoin:round;stroke-miterlimit:2;">
    <g transform="matrix(0.0624958,0,0,0.0624958,-0.593872,-0.00261563)">
        <path d="M599.35,378C604.825,377.35 610.425,377.35 615.875,378C618.875,371.225 619.4,359.375 616.65,346.625C612.75,327.625 607.4,316.025 596.2,317.85C585.125,319.675 584.75,333.475 588.65,352.475C591,363.15 594.9,372.4 599.325,378L599.35,378ZM504.025,393.1C511.975,396.625 516.775,398.95 518.75,396.875C519.925,395.575 519.65,393.225 517.7,390.1C513.8,383.725 505.725,377.2 497.125,373.575C479.15,366.025 458.45,368.5 442.7,380.075C437.35,383.975 432.425,389.45 433.075,392.7C433.325,393.75 434.125,394.525 435.95,394.775C440.375,395.3 455.6,387.625 473.325,386.45C485.7,385.675 496.1,389.575 504.05,393.1L504.025,393.1ZM488.025,402.225C477.6,403.925 472,407.3 468.375,410.425C465.125,413.15 463.3,416.275 463.3,418.375L464.075,420.325L465.775,420.975C468.125,420.975 473.325,418.75 473.325,418.75C484,414.85 495.45,413.55 506.65,415.375C511.85,415.9 514.325,416.275 515.5,414.475C515.75,413.95 516.15,412.9 515.1,411.225C512.75,407.2 502.2,400.55 488.025,402.25L488.025,402.225ZM567.2,435.8C574.225,439.175 581.925,437.875 584.4,432.8C587,427.6 583.35,420.55 576.325,417.175C569.3,413.65 561.6,415.1 559,420.175C556.525,425.375 560.175,432.275 567.2,435.8ZM612.375,396.225C606.65,396.1 601.825,402.35 601.825,410.275C601.7,418.1 606.125,424.475 611.85,424.6C617.575,424.725 622.275,418.475 622.4,410.675C622.525,402.85 617.975,396.35 612.375,396.225ZM228.9,537.625C227.475,535.925 225.125,536.45 222.9,536.975C221.075,537.375 219.25,537.625 217.55,537.75C213.65,537.75 210,535.925 207.775,532.8C205.175,528.775 205.3,522.775 208.175,516L209.475,512.875C214.175,502.6 221.725,485.4 213.125,469C206.75,456.625 196.2,448.95 183.425,447.375C171.175,445.8 159.075,450.1 150.6,459.1C137.975,473.025 136.025,492.05 138.5,498.825C139.4,501.3 140.85,501.95 141.875,502.075C143.95,502.325 147.075,500.775 149.175,495.425L149.7,493.725C150.6,490.85 152.3,485.525 154.9,481.35C161.925,470.675 176.125,467.675 186.675,474.7C195.525,480.425 199.05,491.375 195.275,501.65C193.325,507.125 190.075,517.275 190.85,525.75C192.275,542.8 202.7,549.575 212.075,550.35C221.2,550.75 227.575,545.525 229.275,541.75C230.175,539.525 229.4,538.225 228.875,537.575L228.9,537.625ZM756.375,506.5C755.975,505.2 753.775,496.875 750.65,486.975L744.275,469.925C756.775,451.175 757.025,434.375 755.35,424.875C753.525,413.15 748.7,403.125 738.825,392.85C729.05,382.425 708.875,371.75 680.5,363.825L665.65,359.8C665.65,359.15 664.875,324.65 664.225,309.925C663.825,299.25 662.925,282.45 657.725,266.05C651.6,243.775 640.8,224.25 627.375,211.75C664.35,173.35 687.525,131.025 687.4,94.825C687.275,24.9 601.725,3.8 496.25,47.55L473.85,57.05C460.175,43.65 446.625,30.225 432.825,16.825C312.5,-88.25 -63.525,330.375 56.65,432.2L82.95,454.475C75.925,473.475 73.45,493.925 75.65,514.25C78.525,542.25 92.85,569.075 116.275,589.775C138.4,609.425 167.575,621.925 195.975,621.925C242.725,729.875 349.625,796.15 474.875,799.925C609.375,803.825 722.275,740.675 769.525,627.15C772.65,619.2 785.8,583.275 785.8,551.625C785.8,519.725 767.825,506.575 756.375,506.575L756.375,506.5ZM206.25,591.4C202.225,592.175 197.925,592.45 193.75,592.3C153.25,591.25 109.375,554.675 104.95,511.175C100.125,463.125 124.6,426.275 167.975,417.55C173.975,416.25 180.075,415.85 186.2,416.125C210.55,417.55 246.35,436.175 254.425,489.175C261.725,536.175 250.25,583.975 206.25,591.525L206.25,591.4ZM160.95,388.8C134,394 110.175,409.375 95.575,430.475C86.85,423.325 70.7,409.25 67.85,403.775C44.675,359.5 93.25,273.7 127.1,225.125C210.95,105.325 342.325,14.575 403.15,30.975C413.05,33.85 445.725,71.85 445.725,71.85C445.725,71.85 384.925,105.575 328.525,152.7C252.625,211.3 195.325,296.325 160.95,388.775L160.95,388.8ZM587.1,573.575C588,573.175 588.675,572.15 588.525,571.225C588.4,569.925 587.35,569 586.05,569.15C586.05,569.15 522.5,578.65 462.35,556.525C468.85,535.3 486.3,542.975 512.6,545.075C553.475,547.55 594.5,543.125 633.95,531.925C661.175,524.1 696.85,508.75 724.7,486.75C734.075,507.325 737.325,529.975 737.325,529.975C737.325,529.975 744.625,528.675 750.6,532.45C756.325,535.975 760.5,543.4 757.625,562.275C751.9,597.7 736.8,626.475 711.525,653.025C695.775,670.075 677.025,684.15 656.05,694.425C644.45,700.55 632.35,705.625 619.975,709.8C524.65,740.925 427.125,706.675 395.625,633.1C393.15,627.5 391.075,621.65 389.375,615.65C375.975,567.2 387.3,509 422.975,472.425C425.05,470.075 427.275,467.35 427.275,463.825C427.275,460.95 425.45,457.975 423.9,455.75C411.525,437.65 368.425,406.925 377.025,347.275C383.275,304.425 420.65,274.35 455.55,276.05L464.4,276.575C479.5,277.475 492.65,279.45 505.025,279.95C525.85,280.85 544.6,277.875 566.75,259.375C574.175,253.125 580.15,247.65 590.325,245.975C591.375,245.85 594.1,244.8 599.3,245.075C604.775,245.325 609.975,247.025 614.525,250.025C632.375,261.875 634.85,290.525 635.75,311.475C636.275,323.45 637.7,352.35 638.225,360.7C639.4,379.7 644.35,382.45 654.375,385.7C660.1,387.65 665.45,389.075 673.125,391.175C696.7,397.825 710.625,404.575 719.35,413.175C724.7,418.525 727.025,424.25 727.825,429.7C730.7,450.025 712.2,475.025 663.25,497.8C609.725,522.675 544.9,528.925 500.1,523.975L484.35,522.15C448.55,517.325 428.1,563.675 449.575,595.6C463.375,616.05 501.275,629.45 539.025,629.45C625.625,629.45 692.275,592.35 717.025,560.3L718.975,557.425C720.275,555.6 719.225,554.7 717.675,555.725C697.5,569.525 607.525,624.6 511.425,608.075C511.425,608.075 499.7,606.125 489.025,601.95C480.55,598.7 462.85,590.5 460.65,572.25C538.25,596.35 587.075,573.55 587.075,573.55L587.1,573.575ZM464.2,558.975L464.325,558.975L464.2,558.975ZM315.75,224.6C345.575,190.1 382.275,160.15 415.1,143.35C416.275,142.7 417.45,144 416.925,145.05C414.325,149.75 409.25,160.025 407.675,167.575C407.425,168.75 408.725,169.65 409.625,169C430.2,155.075 465.75,140.1 497,138.15C498.3,138.15 498.95,139.85 497.9,140.625C492.7,144.65 488.125,149.225 484.1,154.425C483.45,155.325 484.1,156.5 485.15,156.5C507.15,156.75 538.025,164.45 558.075,175.775C559.5,176.55 558.6,179.15 557.025,178.775C526.55,171.75 476.675,166.4 424.875,179.175C378.65,190.5 343.375,207.825 317.575,226.7C316.275,227.6 314.7,225.925 315.75,224.625L315.75,224.6Z" style="fill-rule:nonzero;"/>
    </g>
</svg>
