<?xml version="1.0" encoding="UTF-8" standalone="no"?>
<!DOCTYPE svg PUBLIC "-//W3C//DTD SVG 1.1//EN" "http://www.w3.org/Graphics/SVG/1.1/DTD/svg11.dtd">
<svg width="50" height="50" viewBox="0 0 50 50" version="1.1" xmlns="http://www.w3.org/2000/svg" xmlns:xlink="http://www.w3.org/1999/xlink" xml:space="preserve" xmlns:serif="http://www.serif.com/" style="fill-rule:evenodd;clip-rule:evenodd;stroke-linejoin:round;stroke-miterlimit:2;">
    <g transform="matrix(0.188893,0,0,0.188893,-12.7314,-9.0952)">
        <path d="M295.7,179.5C295.7,184.4 293.2,185.2 287,185.2C280.4,185.2 279.2,184.1 278.5,179.1C277.2,166.4 268.6,155.6 254.2,154.4C249.6,154 248.5,152.3 248.5,146.6C248.5,141.3 249.3,138.8 253.4,138.8C278.4,138.9 295.7,159 295.7,179.5ZM332.1,179.5C332.1,141.4 306.3,101.1 246.7,101.1L128.3,101.1C125.9,101.1 124.4,102.3 124.4,104.5C124.4,105.7 125.3,106.8 126.1,107.4C130.4,110.8 136.8,114.6 145.2,118.8C153.4,122.9 159.8,125.6 166.2,128.2C168.9,129.3 169.9,130.5 169.9,132C169.9,134.1 168.4,135.4 165.5,135.4L71.5,135.4C68.7,135.4 67.4,137.2 67.4,139C67.4,140.5 67.9,141.8 69.2,143.1C76.8,151.1 89,160.7 106.7,171.8C122.2,181.5 141.4,192 156.7,199.3C159.3,200.5 160.1,201.9 160.1,203.4C160,205.1 158.7,206.5 155.7,206.5L112.6,206.5C110.2,206.5 108.8,207.8 108.8,209.8C108.8,210.9 109.7,212.3 110.9,213.4C120.7,222.3 136.4,232 157.3,240.9C185.2,252.8 213.5,259.9 245.3,259.9C305.6,259.9 332.1,214.8 332.1,179.5ZM253.4,233.6C223.8,233.6 199.1,209.5 199.1,179.5C199.1,149.9 223.8,126.2 253.4,126.2C283.8,126.2 307.5,149.9 307.5,179.5C307.4,209.5 283.7,233.6 253.4,233.6Z" style="fill:rgb(255,100,45);fill-rule:nonzero;"/>
    </g>
</svg>
