<?xml version="1.0" encoding="UTF-8" standalone="no"?>
<!DOCTYPE svg PUBLIC "-//W3C//DTD SVG 1.1//EN" "http://www.w3.org/Graphics/SVG/1.1/DTD/svg11.dtd">
<svg width="50" height="50" viewBox="0 0 50 50" version="1.1" xmlns="http://www.w3.org/2000/svg" xmlns:xlink="http://www.w3.org/1999/xlink" xml:space="preserve" xmlns:serif="http://www.serif.com/" style="fill-rule:evenodd;clip-rule:evenodd;stroke-linejoin:round;stroke-miterlimit:2;">
    <g transform="matrix(0.0625,0,0,0.0625,0,0.063641)">
        <path d="M400.25,-0.001C422.847,0.041 445.07,1.95 466.674,5.562L466.674,238.437L631.772,73.764C650.006,86.715 667.065,101.119 682.837,116.852C698.617,132.585 713.101,149.646 726.084,167.827L560.978,332.5L794.462,332.5C798.085,354.044 800,376.128 800,398.71L800,399.25C800,421.831 798.085,443.957 794.462,465.501L560.938,465.501L726.084,630.132C713.101,648.314 698.617,665.375 682.885,681.108L682.837,681.108C667.065,696.84 650.006,711.286 631.819,724.196L466.674,559.522L466.674,792.398C445.11,796.009 422.887,797.916 400.29,797.964L399.71,797.964C377.105,797.916 354.969,796.009 333.366,792.398L333.366,559.522L168.268,724.196C131.806,698.334 99.929,666.496 73.956,630.132L239.062,465.501L5.578,465.501C1.915,443.915 0,421.707 0,399.125L0,397.966C0.038,392.106 0.422,384.947 0.973,377.54L1.143,375.312C2.775,354.464 5.578,332.5 5.578,332.5L239.062,332.5L73.956,167.827C86.899,149.646 101.344,132.626 117.115,116.936L117.195,116.852C132.935,101.119 150.033,86.715 168.268,73.764L333.366,238.437L333.366,5.562C354.969,1.95 377.153,0.041 399.789,-0.001L400.25,-0.001ZM400.211,299.25L399.829,299.25C370.113,299.25 341.653,304.688 315.346,314.567C305.485,340.761 300.027,369.154 299.987,398.793L299.987,399.166C300.027,428.805 305.485,457.199 315.385,483.392C341.653,493.272 370.113,498.71 399.829,498.71L400.211,498.71C429.926,498.71 458.387,493.272 484.654,483.392C494.554,457.157 500.013,428.805 500.013,399.166L500.013,398.793C500.013,369.154 494.554,340.761 484.654,314.567C458.387,304.688 429.926,299.25 400.211,299.25Z" style="fill:rgb(255,74,0);fill-rule:nonzero;"/>
    </g>
</svg>
