<?xml version="1.0" encoding="UTF-8" standalone="no"?>
<!DOCTYPE svg PUBLIC "-//W3C//DTD SVG 1.1//EN" "http://www.w3.org/Graphics/SVG/1.1/DTD/svg11.dtd">
<svg width="182" height="50" viewBox="0 0 182 50" version="1.1" xmlns="http://www.w3.org/2000/svg" xmlns:xlink="http://www.w3.org/1999/xlink" xml:space="preserve" xmlns:serif="http://www.serif.com/" style="fill-rule:evenodd;clip-rule:evenodd;stroke-linecap:round;stroke-linejoin:round;">
    <g transform="matrix(0.939559,0,0,0.942985,29.4025,8.96776)">
        <path d="M72.21,22.2C72.21,26.69 69.15,29 63.21,29L48.06,29L48.06,4.52L62.71,4.52C68.43,4.52 71.38,6.75 71.38,11.11C71.54,13.548 69.954,15.785 67.6,16.44C70.66,17.26 72.21,19.17 72.21,22.2M53.71,14.28L62.64,14.28C64.8,14.28 65.84,13.48 65.84,11.86C65.84,10.24 64.84,9.34 62.71,9.34L53.71,9.34L53.71,14.28ZM66.49,21.62C66.49,19.93 65.37,19.1 63.14,19.1L53.67,19.1L53.67,24.18L63.21,24.18C65.37,24.18 66.45,23.35 66.45,21.62L66.49,21.62ZM76.53,19.89C76.53,14.17 80.71,10.35 86.97,10.35C93.23,10.35 97.41,14.17 97.41,19.89C97.41,25.61 93.23,29.43 86.97,29.43C80.71,29.43 76.53,25.61 76.53,19.89M91.9,19.89C91.9,16.8 89.99,14.82 86.97,14.82C83.95,14.82 82.04,16.82 82.04,19.89C82.04,22.96 83.95,24.97 86.97,24.97C89.99,24.97 91.9,22.99 91.9,19.89M102.59,3.44L107.99,3.44L107.99,29L102.59,29L102.59,3.44ZM129.12,28.31C127.471,29.098 125.657,29.482 123.83,29.43C119.15,29.43 116.89,27.56 116.89,23.71L116.89,14.89L112.49,14.89L112.49,10.78L116.89,10.78L116.89,4.52L122.29,4.52L122.29,10.78L128.66,10.78L128.66,14.89L122.29,14.89L122.29,22.59C122.29,24.32 123.04,25.01 124.91,25.01C126.05,25.01 127.175,24.739 128.19,24.22L129.12,28.31Z" style="fill:white;fill-rule:nonzero;"/>
        <path d="M18,26.7L18,18L34,18L34,26.7L29.98,30.35L26,34L21.98,30.35L18,26.7ZM18,9.3L18,18L2,18L2,9.3L6.02,5.65L10,2L14.02,5.65L18,9.3Z" style="fill:none;stroke:rgb(35,213,174);stroke-width:4px;"/>
    </g>
</svg>
