<?xml version="1.0" encoding="UTF-8" standalone="no"?>
<!DOCTYPE svg PUBLIC "-//W3C//DTD SVG 1.1//EN" "http://www.w3.org/Graphics/SVG/1.1/DTD/svg11.dtd">
<svg width="182" height="50" viewBox="0 0 182 50" version="1.1" xmlns="http://www.w3.org/2000/svg" xmlns:xlink="http://www.w3.org/1999/xlink" xml:space="preserve" xmlns:serif="http://www.serif.com/" style="fill-rule:evenodd;clip-rule:evenodd;stroke-linejoin:round;stroke-miterlimit:2;">
    <g transform="matrix(0.225925,0,0,0.225925,39.8279,2.54236)">
        <path d="M292.845,148.376C284.447,150.599 273.507,151.699 263.996,151.699C239.583,151.699 223.417,138.707 223.417,114.928C223.417,92.423 238.474,77.845 260.511,77.845C265.423,77.845 270.651,78.47 273.824,80.061L273.824,47.393L292.845,47.393L292.845,148.376ZM273.824,96.86C270.811,95.434 266.85,94.641 262.087,94.641C250.524,94.641 242.754,101.777 242.754,114.297C242.754,127.773 251.153,135.384 264.628,135.384C267.007,135.384 270.651,135.221 273.824,134.591L273.824,96.86ZM448.931,148.376C440.525,150.599 429.588,151.699 420.077,151.699C395.668,151.699 379.493,138.707 379.493,114.928C379.493,92.423 394.557,77.845 416.594,77.845C421.507,77.845 426.738,78.47 429.909,80.061L429.909,47.393L448.93,47.393L448.93,148.376L448.931,148.376ZM429.909,96.86C426.893,95.434 422.93,94.641 418.176,94.641C406.606,94.641 398.84,101.777 398.84,114.297C398.84,127.773 407.239,135.384 420.714,135.384C423.089,135.384 426.737,135.221 429.909,134.591L429.909,96.86ZM322.758,96.704C325.926,95.433 330.358,94.962 334.162,94.962C345.895,94.962 353.98,101.776 353.98,113.977C353.98,128.37 345.025,134.879 333.051,135.047L333.051,151.689C333.365,151.689 333.685,151.7 334.008,151.7C358.573,151.7 373.32,137.915 373.32,113.346C373.32,90.996 357.629,77.845 334.484,77.845C322.757,77.845 311.18,80.54 303.574,83.707L303.574,178.66L322.758,178.66L322.758,96.704Z" style="fill:white;fill-rule:nonzero;"/>
        <path d="M120.181,92.041C119.394,92.5 118.16,92.464 117.392,91.989L112.87,89.301C112.502,89.073 112.164,88.708 111.909,88.269C111.894,88.244 111.879,88.218 111.864,88.192C111.575,87.721 111.411,87.224 111.394,86.768L111.279,81.496C111.245,80.608 111.831,79.525 112.621,79.064L166.983,47.394L90.698,5.817C89.858,5.351 88.75,5.126 87.641,5.124C86.531,5.122 85.421,5.353 84.58,5.817L8.294,47.395L93.754,97.145C94.546,97.578 95.148,98.606 95.148,99.534L95.148,172.11C95.148,173.021 94.496,174.068 93.698,174.494L89.099,177.048C88.717,177.251 88.231,177.36 87.723,177.36L87.635,177.36C87.083,177.373 86.57,177.264 86.168,177.048L81.554,174.493C80.77,174.076 80.129,173.024 80.129,172.11L80.13,107.412C80.089,106.938 79.742,106.36 79.362,106.142L4.07,62.313L4.07,148.161C4.069,150.082 5.424,152.452 7.084,153.423L84.627,199.155C85.456,199.641 86.548,199.883 87.639,199.879C88.731,199.876 89.823,199.648 90.65,199.156L168.205,153.423C169.859,152.442 171.21,150.085 171.208,148.161L171.208,62.314L120.181,92.041Z" style="fill:url(#_Linear1);fill-rule:nonzero;"/>
    </g>
    <defs>
        <linearGradient id="_Linear1" x1="0" y1="0" x2="1" y2="0" gradientUnits="userSpaceOnUse" gradientTransform="matrix(84.6201,-71.0046,71.0046,84.6201,66.1661,531.109)"><stop offset="0" style="stop-color:rgb(169,0,52);stop-opacity:1"/><stop offset="0.27" style="stop-color:rgb(187,0,51);stop-opacity:1"/><stop offset="0.72" style="stop-color:rgb(211,0,50);stop-opacity:1"/><stop offset="1" style="stop-color:rgb(220,0,50);stop-opacity:1"/></linearGradient>
    </defs>
</svg>
