<?xml version="1.0" encoding="UTF-8" standalone="no"?>
<!DOCTYPE svg PUBLIC "-//W3C//DTD SVG 1.1//EN" "http://www.w3.org/Graphics/SVG/1.1/DTD/svg11.dtd">
<svg width="182" height="50" viewBox="0 0 182 50" version="1.1" xmlns="http://www.w3.org/2000/svg" xmlns:xlink="http://www.w3.org/1999/xlink" xml:space="preserve" xmlns:serif="http://www.serif.com/" style="fill-rule:evenodd;clip-rule:evenodd;stroke-linejoin:round;stroke-miterlimit:2;">
    <g transform="matrix(0.598079,0,0,0.598079,26.1311,1.93242)">
        <path d="M206.519,26.855L200.722,26.855L200.206,32.91L198.081,32.91L198.016,34.005C196.406,33.039 194.538,32.523 192.67,32.459C190.931,32.394 189.256,32.909 187.839,33.876C186.422,34.778 185.585,36.324 185.52,37.998L185.52,38.192C185.144,36.993 184.506,35.893 183.652,34.971C182.107,33.296 179.852,32.395 177.598,32.459C175.183,32.398 172.84,33.303 171.092,34.971C171.028,34.971 171.028,35.035 170.899,35.035C170.899,34.907 170.899,34.713 170.963,34.585C171.221,32.395 170.384,30.205 168.838,28.723C167.521,27.515 165.794,26.848 164.007,26.855L153.83,26.855L153.314,32.91L147.904,32.91L143.524,42.7L140.497,32.91L134.055,32.91C133.025,32.652 131.994,32.459 130.964,32.459C129.224,32.394 127.55,32.909 126.133,33.876C124.716,34.778 123.878,36.324 123.814,37.998C123.556,39.931 124.844,41.798 126.777,42.185C127.485,42.443 128.258,42.635 129.031,42.7C129.686,42.767 130.333,42.897 130.964,43.087C131.414,43.151 131.608,43.344 131.608,43.537C131.543,44.182 130.964,44.247 129.804,44.247C128.155,44.375 126.518,43.868 125.231,42.829C124.897,43.219 124.479,43.528 124.007,43.731C123.485,43.935 122.901,43.912 122.397,43.666C121.946,43.28 122.01,42.7 122.01,42.121L122.783,32.845L117.179,32.845L116.986,34.52C116.471,33.296 115.118,32.652 112.799,32.652C110.674,32.652 108.548,33.489 107.067,35.035C105.521,36.517 104.555,38.578 104.362,40.768C104.297,41.605 104.362,42.508 104.555,43.344L94.378,43.344L94.635,40.059L103.46,40.059L103.911,35.164L95.086,35.164L95.344,32.137L105.457,32.137L105.907,26.791L89.805,26.791L87.936,48.626L104.168,48.626L104.619,43.538C104.877,44.633 105.457,45.663 106.229,46.501C107.746,48.097 109.892,48.946 112.091,48.82C114.41,48.82 116.084,48.175 117.115,46.952C117.373,47.532 117.824,47.982 118.339,48.304C119.112,48.691 119.949,48.884 120.851,48.819C121.688,48.819 122.461,48.755 123.234,48.562L123.299,47.789C125.032,48.681 126.953,49.145 128.902,49.141C133.798,49.141 136.374,47.016 136.761,43.409C136.954,41.348 135.988,39.931 133.669,39.093C132.767,38.771 131.865,38.513 130.899,38.385L129.096,37.998C128.838,37.934 128.709,37.676 128.709,37.483C128.709,37.033 129.224,36.839 130.126,36.839C131.414,36.839 132.703,37.161 133.798,37.805L135.344,35.486L139.788,49.399L139.852,49.592C139.852,49.914 139.724,50.172 139.402,50.301C138.951,50.559 138.435,50.687 137.856,50.687C137.207,50.687 136.559,50.622 135.923,50.494L135.472,55.196C136.181,55.326 136.954,55.39 137.727,55.39C139.467,55.448 141.182,54.951 142.622,53.972C143.568,53.153 144.298,52.113 144.748,50.945L152.864,33.683L151.769,48.691L157.63,48.691L158.145,42.378L162.461,42.378C164.458,42.314 166.326,41.605 167.807,40.253C167.807,40.446 167.743,40.639 167.743,40.897C167.549,43.087 168.258,45.212 169.804,46.758C171.414,48.368 173.604,49.27 175.859,49.141C178.242,49.206 180.561,48.304 182.364,46.758C184.141,45.301 185.257,43.186 185.456,40.897L185.456,39.931C185.971,41.026 186.937,41.863 188.161,42.25C188.887,42.52 189.645,42.693 190.416,42.765C191.06,42.829 191.704,42.958 192.348,43.151C192.799,43.216 192.992,43.409 192.992,43.602C192.928,44.246 192.348,44.311 191.189,44.311C189.54,44.439 187.903,43.932 186.615,42.894L183.202,46.823C185.263,48.433 187.839,49.335 190.416,49.206C195.311,49.206 197.887,47.08 198.274,43.473C198.467,41.413 197.501,39.995 195.182,39.158C194.28,38.836 193.379,38.578 192.412,38.449L190.609,38.063C190.351,37.998 190.222,37.741 190.222,37.547C190.222,37.097 190.738,36.903 191.639,36.903C192.928,36.903 194.216,37.225 195.311,37.87L197.63,34.456L197.372,37.869L199.498,37.869L199.047,42.958C198.66,46.952 200.464,48.948 204.393,48.948C205.295,48.948 206.197,48.884 207.098,48.691L207.549,43.795C207.163,43.86 206.841,43.925 206.454,43.86C205.23,43.86 204.779,43.344 204.908,42.056L205.295,37.741L208.515,37.741L208.966,32.717L205.746,32.717L206.519,26.855ZM116.6,40.832C116.342,42.572 114.796,43.86 113.057,43.86C111.447,43.924 110.094,42.7 110.03,41.09L110.03,40.832C110.352,39.093 111.833,37.805 113.572,37.805C115.118,37.676 116.535,38.9 116.6,40.445L116.6,40.832ZM165.037,34.584C165.037,35.422 164.587,36.194 163.878,36.646C163.556,36.839 163.105,36.968 162.719,37.032L158.725,37.032L159.176,32.33L163.169,32.33C163.556,32.33 163.942,32.395 164.264,32.588C164.909,32.974 165.231,33.812 165.037,34.584ZM179.917,40.832C179.852,41.67 179.401,42.442 178.757,42.958C178.121,43.533 177.295,43.854 176.438,43.86C174.892,43.924 173.54,42.7 173.475,41.154L173.475,40.832C173.733,39.093 175.214,37.805 176.954,37.805C177.791,37.805 178.564,38.127 179.208,38.707C179.852,39.222 180.11,40.059 179.917,40.832Z" style="fill:white;fill-rule:nonzero;"/>
        <path d="M215.472,33.683C215.021,33.232 214.377,32.974 213.668,32.974C212.98,32.974 212.315,33.226 211.8,33.683C211.279,34.146 210.956,34.792 210.899,35.486C210.77,36.13 210.963,36.774 211.414,37.29C211.865,37.74 212.509,37.998 213.217,37.998C213.926,37.998 214.57,37.741 215.085,37.29C215.665,36.839 215.987,36.195 215.987,35.486C216.116,34.842 215.923,34.198 215.472,33.683ZM215.472,35.486C215.407,36.646 214.441,37.547 213.217,37.547C212.251,37.612 211.414,36.839 211.349,35.873L211.349,35.486C211.414,34.326 212.38,33.425 213.604,33.425C214.57,33.296 215.407,34.005 215.472,34.907C215.536,35.1 215.472,35.293 215.472,35.487L215.472,35.486Z" style="fill:white;fill-rule:nonzero;"/>
        <path d="M214.505,34.842C214.57,34.327 214.248,33.94 213.604,33.94L212.509,33.94L212.251,36.903L212.766,36.903L212.831,35.808L213.217,35.808L213.732,36.903L214.377,36.903L213.732,35.743C214.312,35.551 214.505,35.293 214.505,34.843L214.505,34.842ZM213.475,35.422L213.024,35.422L213.088,34.52L213.539,34.52C213.797,34.52 213.926,34.713 213.926,34.97C213.926,35.164 213.732,35.357 213.475,35.422Z" style="fill:white;fill-rule:nonzero;"/>
        <path d="M137.645,64.138C129.722,64.138 118.257,64.138 104.859,63.043C97.74,62.492 90.648,61.632 83.603,60.467C76.26,59.114 68.595,57.375 61.639,54.219C58.269,52.799 55.14,50.865 52.363,48.486C52.17,48.293 51.977,48.099 51.719,47.971C55.94,47.148 60.02,45.716 63.829,43.719C67.951,41.659 71.687,39.017 75.101,35.861C78.599,32.623 81.711,28.992 84.376,25.04C85.08,24.07 85.725,23.06 86.308,22.013C86.502,21.755 86.566,21.562 86.824,21.24L87.274,20.531C87.532,20.081 87.919,19.436 88.176,18.921C89.4,16.602 90.431,14.219 91.139,11.707C91.526,10.225 91.655,8.744 91.526,7.262C91.333,5.459 90.56,3.784 89.271,2.56C87.986,1.472 86.464,0.7 84.827,0.306C83.925,0.24 83.023,0.113 82.122,0.113C81.542,0.113 80.962,0.113 80.447,0.177C77.769,0.487 75.134,1.092 72.589,1.981C70.141,2.882 67.693,3.913 65.375,5.072C60.673,7.52 56.293,10.483 52.235,13.897C48.112,17.439 44.441,21.562 41.478,26.199C39.996,28.647 38.773,31.288 37.935,34.058C37.089,36.896 36.783,39.867 37.033,42.818C37.163,43.978 37.355,45.072 37.678,46.231C32.653,46.167 27.694,45.651 22.798,44.621C18.225,43.655 13.716,42.302 9.336,40.692C7.082,39.919 4.892,38.953 2.702,37.922C2.187,37.665 1.672,37.407 1.092,37.214C1.027,37.214 1.027,37.149 0.898,37.149C0.963,37.214 0.963,37.279 0.963,37.343C0.963,37.407 0.963,37.407 1.027,37.407C3.088,38.567 5.15,39.726 7.275,40.692C7.79,40.95 8.435,41.207 8.95,41.465C13.201,43.397 17.645,45.072 22.154,46.36C27.5,47.906 33.104,48.808 38.644,49.066C38.901,49.71 39.159,50.225 39.417,50.869C40.641,53.124 42.187,55.185 43.99,57.053C47.359,60.289 51.177,63.023 55.326,65.169C62.927,68.904 70.978,71.674 79.223,73.478C86.566,75.217 93.973,76.505 101.445,77.407C116.84,79.404 132.427,80.37 147.951,80.37L149.947,64.138C149.947,64.138 148.788,64.138 146.662,64.202L137.645,64.138ZM47.597,40.37C47.017,37.343 47.919,33.8 49.916,30.257C52.046,26.519 54.765,23.148 57.967,20.274C61.279,17.215 64.907,14.516 68.788,12.222C70.656,11.127 72.653,10.097 74.65,9.259C76.957,8.167 79.447,7.512 81.993,7.327C83.023,7.327 83.99,7.777 84.569,8.551C84.956,9.388 85.085,10.354 84.827,11.256C84.559,12.36 84.193,13.438 83.732,14.476C82.554,17.206 81.154,19.835 79.545,22.335C77.355,26.006 74.779,29.42 71.751,32.447C68.913,35.343 65.708,37.855 62.218,39.919C58.178,42.231 53.814,43.924 49.272,44.943C48.37,43.526 47.79,41.98 47.597,40.37Z" style="fill:rgb(255,201,1);fill-rule:nonzero;"/>
    </g>
</svg>
