<?xml version="1.0" encoding="UTF-8" standalone="no"?>
<!DOCTYPE svg PUBLIC "-//W3C//DTD SVG 1.1//EN" "http://www.w3.org/Graphics/SVG/1.1/DTD/svg11.dtd">
<svg width="182" height="50" viewBox="0 0 182 50" version="1.1" xmlns="http://www.w3.org/2000/svg" xmlns:xlink="http://www.w3.org/1999/xlink" xml:space="preserve" xmlns:serif="http://www.serif.com/" style="fill-rule:evenodd;clip-rule:evenodd;stroke-linejoin:round;stroke-miterlimit:2;">
    <g transform="matrix(1.18538,0,0,1.18538,34.8074,5.91709)">
        <clipPath id="_clip1">
            <rect x="0" y="0" width="95" height="38"/>
        </clipPath>
        <g clip-path="url(#_clip1)">
            <path d="M3.895,12.868C4.57,15.075 7.857,17.102 10.59,19.198C13.448,21.388 14.817,24.001 17.078,23.156C19.34,22.31 19.853,20.036 20.667,17.029C22.068,11.856 22.895,5.766 20.082,5.088C19.734,5.003 19.298,4.963 18.794,4.963C13.894,4.963 2.644,8.774 3.895,12.868Z" style="fill:url(#_Linear2);fill-rule:nonzero;"/>
            <path d="M16.784,18.423C16.117,18.458 14.957,18.56 13.303,18.73C11.643,18.899 10.326,20.204 10.141,21.861C9.982,23.286 9.828,24.337 9.677,25.014C9.508,25.78 9.119,27.08 8.512,28.912C8.031,30.364 8.536,31.961 9.764,32.872C11.403,34.088 12.564,34.898 13.247,35.3C13.872,35.668 14.859,36.144 16.208,36.728C17.582,37.323 19.179,36.99 20.203,35.899C21.843,34.146 23.02,32.954 23.734,32.323C24.246,31.87 24.917,31.322 25.747,30.677C27.105,29.622 27.51,27.744 26.706,26.224C25.813,24.534 25.207,23.367 24.89,22.723C24.611,22.158 24.265,21.409 23.852,20.477C23.285,19.197 22.018,18.372 20.616,18.369L20.346,18.369C18.663,18.369 17.475,18.387 16.784,18.423Z" style="fill:url(#_Linear3);fill-rule:nonzero;"/>
            <path d="M19.602,11.404C18.61,11.705 17.49,11.884 16.64,12.636C13.927,15.035 13.339,18.156 14.698,21.31C15.033,22.087 15.806,23.739 16.397,24.407C17.946,26.158 19.731,26.581 21.896,26.652C23.911,26.72 25.841,26.317 27.47,24.876C28.602,23.874 28.964,22.392 29.399,21.051C30.265,18.388 30.165,15.587 28.176,13.339C27.069,12.089 25.559,11.453 24.058,11.053C23.552,10.919 23.058,10.861 22.571,10.861C21.576,10.861 20.605,11.099 19.602,11.403" style="fill:url(#_Linear4);fill-rule:nonzero;"/>
            <path d="M21.85,26.67C23.455,26.724 25.007,26.476 26.393,25.635C25.654,24.233 25.143,23.246 24.862,22.675C24.592,22.128 24.258,21.406 23.861,20.509L23.835,20.453C23.274,19.186 22.02,18.37 20.635,18.367C18.829,18.365 17.566,18.384 16.846,18.421C16.274,18.451 15.338,18.53 14.033,18.66C14.093,19.55 14.322,20.461 14.715,21.373C15.046,22.144 15.812,23.781 16.399,24.444C17.934,26.18 19.703,26.598 21.85,26.671" style="fill:rgb(220,8,18);fill-rule:nonzero;"/>
            <path d="M10.863,14.078C7.678,15.65 5.372,16.738 3.946,17.343C3.161,17.677 2.389,17.972 1.631,18.228C0.348,18.661 -0.341,20.052 0.092,21.336C0.109,21.384 0.127,21.431 0.146,21.479C1.102,23.818 1.821,25.491 2.3,26.496C2.765,27.47 3.466,28.783 4.405,30.439C5.043,31.563 6.445,31.998 7.608,31.435C9.799,30.372 11.364,29.632 12.304,29.217C13.237,28.803 14.822,28.147 17.057,27.247C18.277,26.756 18.893,25.392 18.453,24.152C17.384,21.145 16.607,19.13 16.119,18.108C15.679,17.185 14.925,16.061 13.856,14.737C13.378,14.144 12.669,13.824 11.946,13.824C11.579,13.824 11.208,13.906 10.862,14.077" style="fill:url(#_Linear5);fill-rule:nonzero;"/>
            <path d="M16.118,18.111C15.677,17.188 14.923,16.064 13.854,14.74C13.134,13.847 11.889,13.573 10.86,14.082C9.183,14.909 7.757,15.599 6.568,16.158C7.796,17.174 9.257,18.178 10.587,19.198C13.445,21.389 14.813,24.002 17.075,23.156C17.395,23.036 17.677,22.885 17.932,22.71C17.13,20.498 16.522,18.958 16.118,18.11" style="fill:rgb(0,142,186);fill-rule:nonzero;"/>
            <path d="M21.858,10.902C21.108,10.981 20.362,11.173 19.6,11.404C18.608,11.704 17.488,11.883 16.638,12.635C13.925,15.035 13.337,18.155 14.696,21.309C14.895,21.771 15.249,22.54 15.628,23.23C16.082,23.354 16.555,23.349 17.075,23.155C19.337,22.309 19.851,20.036 20.664,17.029C21.214,14.999 21.671,12.832 21.858,10.902Z" style="fill:rgb(109,62,124);fill-rule:nonzero;"/>
            <path d="M16.276,18.458C15.587,18.508 14.598,18.599 13.302,18.732C11.642,18.902 10.325,20.206 10.14,21.864C9.98,23.288 9.827,24.34 9.676,25.017C9.507,25.782 9.118,27.082 8.511,28.914C8.28,29.612 8.282,30.343 8.477,31.016C10.216,30.177 11.494,29.577 12.303,29.218C13.236,28.805 14.821,28.148 17.056,27.248C18.276,26.757 18.892,25.392 18.452,24.154C17.492,21.45 16.767,19.556 16.276,18.457" style="fill:rgb(122,142,39);fill-rule:nonzero;"/>
            <path d="M16.844,18.42C16.272,18.45 15.336,18.53 14.031,18.659C14.059,19.069 14.126,19.483 14.225,19.9C14.239,19.956 14.251,20.012 14.266,20.07C14.287,20.151 14.314,20.233 14.339,20.313C14.438,20.645 14.556,20.978 14.699,21.312C14.898,21.774 15.252,22.543 15.631,23.233C16.085,23.356 16.558,23.352 17.078,23.158C18.99,22.443 19.653,20.705 20.304,18.369C18.676,18.369 17.521,18.387 16.847,18.422" style="fill:rgb(148,56,37);fill-rule:nonzero;"/>
            <path d="M17.933,22.711C17.834,22.436 17.737,22.171 17.643,21.917C17.642,21.914 17.641,21.91 17.64,21.907C17.549,21.663 17.463,21.431 17.38,21.206C17.368,21.177 17.356,21.146 17.346,21.116C17.273,20.924 17.203,20.739 17.135,20.56C17.105,20.481 17.076,20.406 17.046,20.331C16.997,20.205 16.949,20.08 16.902,19.962C16.844,19.811 16.786,19.669 16.73,19.531C16.715,19.494 16.7,19.454 16.685,19.418C16.536,19.05 16.4,18.729 16.279,18.457C15.589,18.508 14.6,18.598 13.304,18.731C12.494,18.814 11.769,19.17 11.213,19.702C13.657,21.765 14.987,23.936 17.077,23.155C17.397,23.036 17.679,22.884 17.934,22.709" style="fill:rgb(20,103,46);fill-rule:nonzero;"/>
            <path d="M16.683,19.418C16.465,18.878 16.275,18.439 16.117,18.109C15.772,17.385 15.225,16.532 14.493,15.56C14.007,16.747 13.886,18.014 14.105,19.313C14.109,19.341 14.115,19.368 14.12,19.396C14.151,19.572 14.184,19.747 14.228,19.923C14.344,20.403 14.502,20.887 14.711,21.373C15.043,22.142 15.809,23.78 16.395,24.443C17.016,25.144 17.677,25.624 18.384,25.959C18.626,25.407 18.668,24.766 18.451,24.154C18.158,23.331 17.89,22.59 17.641,21.917C17.64,21.913 17.639,21.91 17.637,21.906C17.547,21.664 17.461,21.429 17.378,21.206C17.366,21.176 17.354,21.146 17.343,21.116C17.271,20.924 17.2,20.737 17.131,20.559C17.101,20.481 17.073,20.407 17.043,20.331C16.994,20.206 16.945,20.079 16.899,19.962C16.839,19.811 16.784,19.67 16.727,19.531C16.712,19.494 16.697,19.454 16.682,19.418" style="fill:rgb(27,43,76);fill-rule:nonzero;"/>
            <path d="M17.698,22.851C17.777,22.805 17.858,22.761 17.932,22.71C17.837,22.45 17.746,22.2 17.657,21.959C17.624,21.872 17.594,21.791 17.563,21.706C17.508,21.558 17.453,21.41 17.4,21.269C17.361,21.164 17.323,21.064 17.285,20.963C17.244,20.857 17.204,20.751 17.166,20.649C17.122,20.535 17.08,20.425 17.038,20.317C17.008,20.239 16.978,20.161 16.947,20.086C16.902,19.971 16.857,19.856 16.815,19.748C16.794,19.695 16.773,19.643 16.752,19.591C16.704,19.471 16.656,19.352 16.61,19.24C16.602,19.219 16.594,19.2 16.585,19.179C16.473,18.909 16.37,18.667 16.275,18.455C16.171,18.463 16.052,18.472 15.934,18.482C15.423,18.523 14.791,18.581 14.029,18.657C14.054,19.017 14.113,19.379 14.191,19.743C14.307,20.262 14.469,20.784 14.696,21.307C14.895,21.769 15.249,22.539 15.628,23.229C15.74,23.259 15.853,23.282 15.968,23.296C15.975,23.296 15.982,23.296 15.989,23.297C16.096,23.308 16.205,23.314 16.316,23.309C16.35,23.308 16.386,23.301 16.421,23.298C16.507,23.291 16.593,23.283 16.681,23.266C16.809,23.239 16.938,23.203 17.072,23.153C17.3,23.068 17.503,22.963 17.696,22.848" style="fill:rgb(29,29,27);fill-rule:nonzero;"/>
            <path d="M36.396,12.717L36.396,25.073C36.396,25.487 36.632,25.724 37.045,25.724L37.992,25.724C38.405,25.724 38.642,25.488 38.642,25.073L38.642,12.717C38.642,12.304 38.405,12.067 37.992,12.067L37.045,12.067C36.632,12.067 36.396,12.302 36.396,12.717ZM38.716,7.42C38.716,6.759 38.18,6.225 37.519,6.225C36.858,6.225 36.322,6.761 36.322,7.42C36.322,8.08 36.858,8.617 37.519,8.617C38.18,8.617 38.716,8.081 38.716,7.42ZM43.429,15.678C43.429,15.057 43.961,13.847 45.793,13.847C46.502,13.847 47.182,14.113 47.772,14.674C48.038,14.911 48.392,14.97 48.688,14.763L49.397,14.26C49.722,14.025 49.782,13.699 49.486,13.374C48.718,12.517 47.477,11.779 45.793,11.779C42.75,11.779 41.242,13.788 41.242,15.679C41.242,17.925 42.897,19.431 45.793,19.579C45.793,19.579 48.393,19.579 48.393,21.588C48.393,22.711 47.655,23.922 45.793,23.922C44.404,23.922 43.399,22.977 42.779,22.119C42.572,21.824 42.248,21.736 41.922,21.943L41.242,22.415C40.888,22.681 40.859,23.006 41.066,23.331C41.775,24.454 43.253,26.02 45.793,26.02C48.866,26.02 50.668,24.1 50.668,21.588C50.668,18.811 48.393,17.659 45.793,17.511C45.793,17.511 43.429,17.422 43.429,15.679M59.83,21.232C59.83,22.562 58.884,23.921 57.23,23.921C55.575,23.921 54.629,22.562 54.629,21.232C54.629,19.903 55.574,18.544 57.23,18.544C58.885,18.544 59.83,19.903 59.83,21.232ZM62.105,25.073L62.105,16.565C62.105,14.025 60.155,11.779 57.23,11.779C55.93,11.779 54.837,12.104 53.891,12.636C53.625,12.784 53.36,13.139 53.567,13.522L53.95,14.201C54.157,14.556 54.394,14.704 54.777,14.497C55.369,14.173 56.196,13.877 57.23,13.877C58.884,13.877 59.83,15.235 59.83,16.565C59.83,16.861 59.653,17.038 59.417,16.92C58.796,16.624 57.998,16.447 57.231,16.447C54.306,16.447 52.356,18.693 52.356,21.233C52.356,23.774 54.306,26.02 57.231,26.02C58.413,26.02 59.27,25.665 59.801,25.34C59.919,25.251 60.097,25.251 60.215,25.458C60.304,25.606 60.452,25.724 60.687,25.724L61.456,25.724C61.869,25.724 62.105,25.488 62.105,25.073ZM71.98,21.232C71.98,22.562 71.034,23.921 69.379,23.921C67.725,23.921 66.779,22.562 66.779,21.232L66.779,16.564C66.779,15.234 67.724,13.876 69.379,13.876C71.035,13.876 71.98,15.234 71.98,16.564L71.98,21.232ZM74.254,21.232L74.254,16.564C74.254,14.024 72.304,11.778 69.379,11.778C68.67,11.778 67.961,11.955 67.253,12.25C66.987,12.368 66.78,12.221 66.78,11.985L66.78,6.874C66.78,6.46 66.543,6.225 66.13,6.225L65.155,6.225C64.741,6.225 64.504,6.46 64.504,6.874L64.504,21.232C64.504,23.773 66.454,26.018 69.379,26.018C72.304,26.018 74.254,23.773 74.254,21.232ZM84.155,17.273C84.155,17.687 83.919,17.924 83.506,17.924L79.605,17.924C79.192,17.924 78.955,17.688 78.955,17.273L78.955,16.564C78.955,15.234 79.901,13.876 81.556,13.876C83.21,13.876 84.156,15.234 84.156,16.564L84.156,17.273L84.155,17.273ZM86.429,18.574L86.429,16.565C86.429,14.025 84.479,11.779 81.554,11.779C78.629,11.779 76.679,14.025 76.679,16.565L76.679,21.233C76.679,23.774 78.629,26.02 81.554,26.02C84.036,26.02 85.484,24.601 86.193,23.449C86.341,23.214 86.399,22.8 86.045,22.533L85.396,22.061C85.1,21.854 84.716,21.884 84.509,22.178C84.007,22.858 83.091,23.922 81.554,23.922C79.9,23.922 78.954,22.563 78.954,21.233L78.954,20.524C78.954,20.11 79.191,19.874 79.604,19.874L85.13,19.874C85.957,19.874 86.429,19.401 86.429,18.574ZM94.808,25.362L94.808,24.57C94.808,24.151 94.573,23.912 94.158,23.912L93.685,23.912C93.674,23.912 93.658,23.917 93.646,23.917C92.018,23.894 91.086,22.55 91.086,21.232L91.086,6.874C91.086,6.46 90.851,6.225 90.437,6.225L89.462,6.225C89.048,6.225 88.812,6.46 88.812,6.874L88.812,21.232C88.812,23.773 90.762,26.018 93.687,26.018L94.159,26.018C94.573,26.018 94.81,25.779 94.81,25.361" style="fill:white;fill-rule:nonzero;"/>
        </g>
    </g>
    <defs>
        <linearGradient id="_Linear2" x1="0" y1="0" x2="1" y2="0" gradientUnits="userSpaceOnUse" gradientTransform="matrix(18.1575,0,0,18.1575,3.79883,14.1407)"><stop offset="0" style="stop-color:rgb(0,135,241);stop-opacity:1"/><stop offset="1" style="stop-color:rgb(0,169,255);stop-opacity:1"/></linearGradient>
        <linearGradient id="_Linear3" x1="0" y1="0" x2="1" y2="0" gradientUnits="userSpaceOnUse" gradientTransform="matrix(18.7847,0,0,18.7847,8.33203,27.6946)"><stop offset="0" style="stop-color:rgb(255,211,92);stop-opacity:1"/><stop offset="1" style="stop-color:rgb(255,137,0);stop-opacity:1"/></linearGradient>
        <linearGradient id="_Linear4" x1="0" y1="0" x2="1" y2="0" gradientUnits="userSpaceOnUse" gradientTransform="matrix(15.9231,0,0,15.9231,13.9941,18.7604)"><stop offset="0" style="stop-color:rgb(211,46,126);stop-opacity:1"/><stop offset="1" style="stop-color:rgb(255,48,131);stop-opacity:1"/></linearGradient>
        <linearGradient id="_Linear5" x1="0" y1="0" x2="1" y2="0" gradientUnits="userSpaceOnUse" gradientTransform="matrix(18.6317,0,0,18.6317,-0.0371094,22.7524)"><stop offset="0" style="stop-color:rgb(0,173,179);stop-opacity:1"/><stop offset="1" style="stop-color:rgb(0,211,179);stop-opacity:1"/></linearGradient>
    </defs>
</svg>
