<?xml version="1.0" encoding="UTF-8" standalone="no"?>
<!DOCTYPE svg PUBLIC "-//W3C//DTD SVG 1.1//EN" "http://www.w3.org/Graphics/SVG/1.1/DTD/svg11.dtd">
<svg width="182" height="50" viewBox="0 0 182 50" version="1.1" xmlns="http://www.w3.org/2000/svg" xmlns:xlink="http://www.w3.org/1999/xlink" xml:space="preserve" xmlns:serif="http://www.serif.com/" style="fill-rule:evenodd;clip-rule:evenodd;">
    <g id="Layer" transform="matrix(0.889945,0,0,0.889945,24.1363,12.3406)">
        <path id="Layer1" serif:id="Layer" d="M91.006,18.626L75.883,18.626C76.103,19.961 76.683,21.021 77.632,21.81C78.581,22.599 79.789,22.99 81.262,22.99C83.022,22.99 84.534,22.378 85.797,21.148L89.764,23.012C88.777,24.414 87.59,25.451 86.211,26.124C84.832,26.797 83.193,27.134 81.295,27.134C78.354,27.134 75.954,26.207 74.106,24.348C72.258,22.494 71.331,20.166 71.331,17.374C71.331,14.51 72.252,12.132 74.101,10.246C75.943,8.353 78.261,7.41 81.041,7.41C83.993,7.41 86.399,8.353 88.247,10.246C90.095,12.138 91.022,14.632 91.022,17.738L91.006,18.626ZM86.299,14.919C85.99,13.87 85.378,13.021 84.462,12.364C83.546,11.708 82.487,11.382 81.273,11.382C79.96,11.382 78.807,11.752 77.819,12.486C77.196,12.943 76.622,13.754 76.092,14.919L86.299,14.919Z" style="fill:white;"/>
        <path id="Layer2" serif:id="Layer" d="M112.606,11.68L108.688,13.837C107.949,13.065 107.226,12.535 106.503,12.232C105.786,11.934 104.942,11.785 103.977,11.785C102.217,11.785 100.793,12.309 99.706,13.357C98.619,14.406 98.073,15.752 98.073,17.396C98.073,18.99 98.597,20.292 99.646,21.302C100.694,22.312 102.068,22.819 103.772,22.819C105.88,22.819 107.519,22.102 108.694,20.662L112.407,23.206C110.393,25.821 107.557,27.128 103.888,27.128C100.589,27.128 98.007,26.152 96.137,24.199C94.266,22.246 93.334,19.956 93.334,17.335C93.334,15.52 93.786,13.848 94.697,12.32C95.607,10.792 96.87,9.589 98.498,8.717C100.126,7.846 101.946,7.41 103.954,7.41C105.819,7.41 107.491,7.779 108.97,8.524C110.454,9.258 111.662,10.312 112.606,11.68Z" style="fill:white;fill-rule:nonzero;"/>
        <path id="Layer3" serif:id="Layer" d="M123.938,7.404C125.709,7.404 127.37,7.846 128.931,8.734C130.487,9.617 131.706,10.819 132.578,12.337C133.45,13.854 133.886,15.492 133.886,17.252C133.886,19.023 133.444,20.679 132.567,22.218C131.69,23.757 130.487,24.966 128.97,25.832C127.452,26.698 125.781,27.134 123.954,27.134C121.262,27.134 118.967,26.179 117.063,24.265C115.16,22.35 114.211,20.028 114.211,17.291C114.211,14.361 115.287,11.917 117.433,9.964C119.326,8.254 121.494,7.404 123.938,7.404ZM124.021,11.834C122.559,11.834 121.339,12.342 120.368,13.363C119.397,14.378 118.906,15.68 118.906,17.269C118.906,18.902 119.386,20.221 120.346,21.236C121.306,22.246 122.526,22.753 123.999,22.753C125.472,22.753 126.697,22.24 127.679,21.219C128.655,20.199 129.146,18.88 129.146,17.269C129.146,15.658 128.666,14.35 127.706,13.346C126.746,12.342 125.516,11.834 124.021,11.834Z" style="fill:white;"/>
        <path id="Layer4" serif:id="Layer" d="M146.603,22.444C142.807,23.895 143.011,20.232 143.011,20.232L143.011,11.934L145.803,11.934L145.803,7.884L143.011,7.884L143.011,0.971L138.305,0.971L138.305,7.884L135.888,7.884L135.888,11.934L138.305,11.934L138.305,21.528C138.305,24.761 140.81,27.128 143.905,27.128C143.905,27.128 145.372,27.194 146.669,26.13L146.603,22.444Z" style="fill:white;fill-rule:nonzero;"/>
        <path id="Layer5" serif:id="Layer" d="M55.16,1.114L59.794,1.114L59.794,22.428L70.305,22.428L70.305,26.643L55.16,26.643L55.16,1.114Z" style="fill:white;fill-rule:nonzero;"/>
        <g id="Layer6" serif:id="Layer">
            <path id="Layer7" serif:id="Layer" d="M31.811,21.92C32.6,20.116 33.036,18.124 33.036,16.028C33.036,7.901 26.443,1.308 18.316,1.308C10.189,1.308 3.596,7.901 3.596,16.028C3.596,24.154 10.189,30.748 18.316,30.748C19.469,30.748 22.768,30.312 21.665,30.367C18.846,28.348 17.361,25.324 17.361,25.324C12.65,24.844 8.975,20.866 8.975,16.028C8.975,10.869 13.157,6.681 18.321,6.681C23.486,6.681 27.668,10.863 27.668,16.028C27.668,16.662 27.607,17.28 27.486,17.881C27.474,17.881 26.994,20.292 31.811,21.92Z" style="fill:rgb(255,237,0);fill-rule:nonzero;stroke:rgb(255,237,0);stroke-width:0.37px;"/>
            <path id="Layer8" serif:id="Layer" d="M19.326,10.665C18.608,12.497 18.25,14.505 18.327,16.601C18.641,24.723 25.483,31.057 33.61,30.737C41.731,30.422 48.065,23.581 47.745,15.454C47.425,7.327 40.589,0.999 32.462,1.319C31.309,1.363 28.026,1.926 29.13,1.832C32.026,3.735 33.626,6.703 33.626,6.703C38.354,7.001 42.183,10.83 42.371,15.669C42.57,20.828 38.553,25.17 33.394,25.368C28.236,25.567 23.894,21.55 23.695,16.392C23.673,15.757 23.712,15.134 23.806,14.532C23.811,14.532 24.197,12.105 19.326,10.665Z" style="fill:white;fill-rule:nonzero;stroke:white;stroke-width:0.28px;"/>
        </g>
    </g>
</svg>
