<?xml version="1.0" encoding="UTF-8" standalone="no"?>
<!DOCTYPE svg PUBLIC "-//W3C//DTD SVG 1.1//EN" "http://www.w3.org/Graphics/SVG/1.1/DTD/svg11.dtd">
<svg width="182" height="50" viewBox="0 0 182 50" version="1.1" xmlns="http://www.w3.org/2000/svg" xmlns:xlink="http://www.w3.org/1999/xlink" xml:space="preserve" xmlns:serif="http://www.serif.com/" style="fill-rule:evenodd;clip-rule:evenodd;stroke-linejoin:round;stroke-miterlimit:2;">
    <g id="Layer_2" transform="matrix(0.88,0,0,0.88,25,2.3)">
        <g id="Layer_1-2">
            <path d="M40.756,35.306C42.07,36.076 43.555,36.507 45.077,36.56C47.398,36.56 48.516,35.399 48.516,33.902C48.516,32.405 47.596,31.5 45.228,30.614C41.97,29.426 40.458,27.685 40.458,25.534C40.458,22.644 42.821,20.28 46.648,20.28C48.177,20.241 49.687,20.626 51.012,21.39L50.238,23.712C49.13,23.052 47.868,22.695 46.578,22.675C44.644,22.675 43.618,23.785 43.618,25.116C43.618,26.633 44.655,27.298 46.984,28.184C50.052,29.345 51.681,30.892 51.681,33.6C51.681,36.777 49.205,39.017 45.023,39.017C43.266,39.036 41.534,38.603 39.993,37.759L40.756,35.306Z" style="fill:white;fill-rule:nonzero;"/>
            <path d="M69.833,12.345L69.833,33.972C69.833,35.566 69.868,37.376 69.984,38.614L67.059,38.614L66.912,35.519L66.827,35.519C65.829,37.512 63.682,39.032 60.761,39.032C56.432,39.032 53.07,35.368 53.07,29.937C53.035,23.944 56.768,20.323 61.094,20.323C63.868,20.323 65.736,21.615 66.51,23.031L66.583,23.031L66.583,12.345L69.833,12.345ZM66.58,27.987C66.589,27.513 66.542,27.041 66.44,26.578C65.954,24.384 63.984,22.812 61.736,22.826C58.37,22.826 56.382,25.801 56.382,29.724C56.382,33.384 58.192,36.378 61.67,36.378C63.963,36.357 65.953,34.738 66.44,32.498C66.549,32.036 66.598,31.563 66.587,31.089L66.58,27.987Z" style="fill:white;fill-rule:nonzero;"/>
            <path d="M75.756,20.702L78.163,29.762C78.642,31.759 79.122,33.631 79.459,35.496L79.567,35.496C79.981,33.678 80.561,31.759 81.142,29.79L84.063,20.69L86.802,20.69L89.576,29.639C90.237,31.747 90.759,33.666 91.166,35.481L91.274,35.481C91.623,33.522 92.08,31.585 92.644,29.677L95.197,20.694L98.412,20.694L92.655,38.599L89.696,38.599L86.945,30.056C86.318,28.022 85.784,26.25 85.359,24.137L85.285,24.137C84.858,26.151 84.314,28.137 83.656,30.087L80.774,38.599L77.815,38.599L72.398,20.702L75.756,20.702Z" style="fill:white;fill-rule:nonzero;"/>
            <path d="M107.171,39.005C102.366,39.005 98.594,35.453 98.594,29.797C98.594,23.805 102.551,20.296 107.469,20.296C112.61,20.296 116.084,24.029 116.084,29.465C116.084,36.119 111.461,39.005 107.209,39.005L107.171,39.005ZM107.279,36.56C110.374,36.56 112.715,33.639 112.715,29.573C112.715,26.54 111.198,22.733 107.353,22.733C103.507,22.733 101.886,26.284 101.886,29.697C101.886,33.62 104.103,36.571 107.24,36.571L107.279,36.56Z" style="fill:white;fill-rule:nonzero;"/>
            <path d="M118.762,26.284C118.762,24.176 118.723,22.361 118.615,20.698L121.458,20.698L121.605,24.211L121.717,24.211C122.53,21.808 124.526,20.292 126.708,20.292C127.008,20.289 127.307,20.325 127.598,20.4L127.598,23.429C127.212,23.386 126.825,23.363 126.437,23.36C124.143,23.36 122.514,25.093 122.073,27.499C121.997,28.012 121.96,28.529 121.961,29.047L121.961,38.595L118.711,38.595L118.762,26.284Z" style="fill:white;fill-rule:nonzero;"/>
            <path d="M132.983,20.702L135.533,24.513C136.198,25.549 136.751,26.447 137.343,27.433L137.456,27.433C138.047,26.397 138.639,25.472 139.27,24.513L141.75,20.702L145.298,20.702L139.208,29.352L145.46,38.599L141.761,38.599L139.135,34.567C138.434,33.535 137.842,32.532 137.2,31.472L137.127,31.472C136.535,32.544 135.904,33.504 135.239,34.567L132.65,38.599L129.068,38.599L135.424,29.465L129.374,20.702L132.983,20.702Z" style="fill:white;fill-rule:nonzero;"/>
            <path d="M18.557,13.989L14.525,50L20.913,50L25.207,13.989L18.557,13.989Z" style="fill:rgb(228,0,58);fill-rule:nonzero;"/>
            <path d="M7.101,38.839L13.167,38.839L10.749,25.135L4.54,25.135L7.101,38.839Z" style="fill:rgb(119,131,160);fill-rule:nonzero;"/>
            <path d="M33.889,0L25.625,38.823L32.12,38.823L40.802,0L33.889,0Z" style="fill:rgb(248,173,7);fill-rule:nonzero;"/>
        </g>
    </g>
</svg>
