<?xml version="1.0" encoding="UTF-8" standalone="no"?>
<!DOCTYPE svg PUBLIC "-//W3C//DTD SVG 1.1//EN" "http://www.w3.org/Graphics/SVG/1.1/DTD/svg11.dtd">
<svg width="182" height="50" viewBox="0 0 182 50" version="1.1" xmlns="http://www.w3.org/2000/svg" xmlns:xlink="http://www.w3.org/1999/xlink" xml:space="preserve" xmlns:serif="http://www.serif.com/" style="fill-rule:evenodd;clip-rule:evenodd;stroke-linejoin:round;stroke-miterlimit:2;">
    <g transform="matrix(0.865495,0,0,0.865495,24.2122,3.05019)">
        <g transform="matrix(0.714053,0,0,0.714053,-26.2418,-3.52421)">
            <path d="M24.626,28.702L0,28.702L0,33.99L9.984,33.99L9.984,59.105L15.641,59.105L15.641,33.99L24.626,33.99L24.626,28.702ZM33.096,59.105C38.76,59.105 41.936,56.535 43.457,53.046L38.485,51.301C37.793,53.136 36.414,54.653 33.191,54.653C30.105,54.653 28.081,52.908 27.711,49.789L43.457,49.789L43.457,47.863C43.457,41.026 39.543,36.665 32.959,36.665C26.603,36.665 22.091,41.345 22.091,48.044C22.091,54.791 26.328,59.104 33.096,59.104L33.096,59.105ZM32.944,41.041C35.892,41.041 37.594,42.648 37.826,45.815L27.74,45.815C28.153,42.785 30.181,41.041 32.944,41.041ZM53.923,59.105C57.153,59.105 61.286,55.587 61.286,55.587L61.286,58.58L66.635,58.58L66.635,44.823C66.635,38.894 63.129,36.299 57.378,36.299C51.403,36.299 47.626,39.589 47.448,44.544L52.598,44.544L52.598,44.222C52.732,42.278 54.079,40.798 56.954,40.798C59.83,40.798 60.952,42 60.952,43.295L60.952,43.509C60.952,43.509 58.906,44.895 54.89,45.684C49.998,46.748 46.35,47.859 46.35,52.764C46.355,56.56 49.263,59.104 53.923,59.104L53.923,59.105ZM55.473,54.986C53.489,54.986 52.333,53.969 52.333,52.489C52.333,50.545 53.996,49.807 56.208,49.249C58.008,48.786 60.04,48.417 61.286,47.675L61.286,49.525C61.148,53.6 58.196,54.986 55.473,54.986ZM76.985,37.132L71.343,37.132L71.343,59.105L77.318,59.105L77.318,46.7C77.318,43.381 79.042,41.767 81.128,41.767C83.442,41.767 84.622,43.15 84.622,45.824L84.622,59.104L90.265,59.104L90.265,46.7C90.265,43.519 91.626,41.767 94.075,41.767C96.341,41.767 97.569,43.15 97.569,46.056L97.569,59.104L103.211,59.104L103.211,45.604C103.211,39.972 100.589,36.664 96.356,36.664C92.582,36.664 90.236,38.571 89.272,41.271C88.168,37.826 85.731,36.664 83.29,36.664C80.208,36.664 78.09,38.108 76.988,40.667L76.988,37.131L76.985,37.131L76.985,37.132ZM113.713,28.34L107.919,32.046L107.919,59.105L113.713,59.105L113.713,28.34ZM128.34,59.105C134.004,59.105 137.18,56.535 138.701,53.046L133.729,51.301C133.037,53.136 131.658,54.653 128.434,54.653C125.349,54.653 123.325,52.908 122.955,49.789L138.701,49.789L138.701,47.863C138.701,41.026 134.786,36.665 128.203,36.665C121.847,36.665 117.335,41.345 117.335,48.044C117.335,54.791 121.572,59.104 128.34,59.104L128.34,59.105ZM128.192,41.041C131.14,41.041 132.842,42.648 133.074,45.815L122.988,45.815C123.404,42.785 125.429,41.041 128.192,41.041ZM149.142,59.105C152.361,59.105 156.182,55.641 156.182,55.641L156.182,58.62L161.516,58.62L161.516,45.062C161.516,39.22 158.018,36.665 152.282,36.665C146.321,36.665 142.554,39.904 142.373,44.79L147.845,44.79L147.845,44.472C147.979,42.557 149.323,41.098 152.191,41.098C155.059,41.098 156.178,42.282 156.178,43.56L156.178,43.74C156.178,43.74 154.103,45.109 150.101,45.883C145.227,46.933 141.595,48.026 141.595,52.861C141.598,56.597 144.495,59.105 149.142,59.105ZM150.38,55.077C148.399,55.077 147.251,54.074 147.251,52.615C147.251,50.701 148.91,49.969 151.119,49.423C152.915,48.967 154.94,48.601 156.186,47.873L156.186,49.698C156.044,53.712 153.096,55.077 150.38,55.077ZM175.05,59.105C177.824,59.105 179.725,57.875 181.224,55.869L181.224,58.649L186.867,58.649L186.867,27.978L181.224,31.663L181.224,39.542C179.725,37.537 177.824,36.679 175.097,36.679C169.639,36.679 165.5,41.145 165.5,47.982C165.5,55.004 169.683,59.105 175.05,59.105ZM176.248,54.523C173.018,54.523 170.939,52.409 170.939,48.138L170.939,47.816C170.939,43.546 173.109,41.203 176.248,41.203C179.62,41.203 181.557,43.683 181.557,47.588L181.557,47.958C181.557,51.858 179.526,54.523 176.248,54.523ZM201.856,59.105C207.52,59.105 210.696,56.535 212.217,53.046L207.244,51.301C206.553,53.136 205.173,54.653 201.95,54.653C198.864,54.653 196.84,52.908 196.471,49.789L212.217,49.789L212.217,47.863C212.217,41.026 208.302,36.665 201.718,36.665C195.362,36.665 190.85,41.345 190.85,48.044C190.85,54.791 195.087,59.104 201.856,59.104L201.856,59.105ZM201.649,41.041C204.597,41.041 206.299,42.648 206.531,45.815L196.445,45.815C196.858,42.785 198.886,41.041 201.649,41.041ZM221.995,37.027L216.2,37.027L216.2,59.105L221.995,59.105L221.995,48.102C221.995,44.11 222.94,42.456 226.311,42.456L228.513,42.456L228.513,36.665L228.064,36.665C224.153,36.665 222.581,38.515 221.995,41.142L221.995,37.027Z" style="fill:white;fill-rule:nonzero;"/>
        </g>
        <g transform="matrix(0.714053,0,0,0.714053,-26.2418,-3.52421)">
            <path d="M251.944,50.672L236.864,26.273L251.944,26.273L251.944,50.672ZM251.944,24.398L216.128,24.398L251.944,0L251.944,24.398ZM275.871,35.658L253.831,50.672L253.831,0L275.871,35.658ZM272.282,26.273L277.424,34.594L289.64,26.274L272.282,26.274L272.282,26.273Z" style="fill:rgb(0,178,178);fill-rule:nonzero;"/>
        </g>
    </g>
</svg>
