<?xml version="1.0" encoding="UTF-8" standalone="no"?><!DOCTYPE svg PUBLIC "-//W3C//DTD SVG 1.1//EN" "http://www.w3.org/Graphics/SVG/1.1/DTD/svg11.dtd"><svg width="100%" height="100%" viewBox="0 0 834 521" version="1.1" xmlns="http://www.w3.org/2000/svg" xmlns:xlink="http://www.w3.org/1999/xlink" xml:space="preserve" xmlns:serif="http://www.serif.com/" style="fill-rule:evenodd;clip-rule:evenodd;stroke-linejoin:round;stroke-miterlimit:2;"><path d="M677.083,0l-52.083,0l-110.879,110.879c-19.446,-64.162 -79.025,-110.879 -149.538,-110.879l-52.083,0l-110.879,110.879c-19.446,-64.162 -79.025,-110.879 -149.538,-110.879l-52.083,0l-0,364.583c-0,86.296 69.954,156.25 156.25,156.25l52.083,0l0,-364.583c0,-9.396 -0.875,-18.583 -2.466,-27.521l106.633,-106.633l-0,342.487c-0,86.296 69.954,156.25 156.25,156.25l52.083,0l0,-364.583c0,-9.396 -0.875,-18.583 -2.466,-27.521l106.633,-106.633l-0,342.487c-0,86.296 69.954,156.25 156.25,156.25l52.083,0l0,-364.583c0,-86.296 -69.954,-156.25 -156.25,-156.25" style="fill:#fff;fill-rule:nonzero;"/></svg>