<?xml version="1.0" encoding="UTF-8" standalone="no"?>
<!DOCTYPE svg PUBLIC "-//W3C//DTD SVG 1.1//EN" "http://www.w3.org/Graphics/SVG/1.1/DTD/svg11.dtd">
<svg width="100%" height="100%" viewBox="0 0 834 521" version="1.1" xmlns="http://www.w3.org/2000/svg" xmlns:xlink="http://www.w3.org/1999/xlink" xml:space="preserve" xmlns:serif="http://www.serif.com/" style="fill-rule:evenodd;clip-rule:evenodd;stroke-linejoin:round;stroke-miterlimit:2;">
    <path d="M677.083,0L625,0L514.121,110.879C494.675,46.717 435.096,0 364.583,0L312.5,0L201.621,110.879C182.175,46.717 122.596,0 52.083,0L-0,0L-0,364.583C-0,450.879 69.954,520.833 156.25,520.833L208.333,520.833L208.333,156.25C208.333,146.854 207.458,137.667 205.867,128.729L312.5,22.096L312.5,364.583C312.5,450.879 382.454,520.833 468.75,520.833L520.833,520.833L520.833,156.25C520.833,146.854 519.958,137.667 518.367,128.729L625,22.096L625,364.583C625,450.879 694.954,520.833 781.25,520.833L833.333,520.833L833.333,156.25C833.333,69.954 763.379,0 677.083,0" style="fill:rgb(0,65,116);fill-rule:nonzero;"/>
</svg>
