<?xml version="1.0" encoding="UTF-8" standalone="no"?>
<!DOCTYPE svg PUBLIC "-//W3C//DTD SVG 1.1//EN" "http://www.w3.org/Graphics/SVG/1.1/DTD/svg11.dtd">
<svg width="182" height="50" viewBox="0 0 182 50" version="1.1" xmlns="http://www.w3.org/2000/svg" xmlns:xlink="http://www.w3.org/1999/xlink" xml:space="preserve" xmlns:serif="http://www.serif.com/" style="fill-rule:evenodd;clip-rule:evenodd;stroke-linejoin:round;stroke-miterlimit:2;">
    <g transform="matrix(1.21774,0,0,1.21774,30.1244,12.0846)">
        <path d="M45.55,6.375C43.82,6.375 42.57,6.952 41.608,8.234L41.48,8.394L41.384,8.234C40.646,7.048 39.332,6.407 37.665,6.407C36.703,6.407 35.229,6.759 34.267,7.753L34.043,7.977L34.043,6.76L30.453,6.76L30.453,19.967L34.203,19.967L34.203,12.21C34.203,11.024 34.908,9.806 36.447,9.806C37.793,9.806 38.563,10.639 38.563,12.082L38.563,19.935L42.313,19.935L42.313,12.178C42.313,10.768 43.243,9.774 44.557,9.774C45.903,9.774 46.673,10.607 46.673,12.05L46.673,19.903L50.327,19.903L50.327,11.344C50.327,7.69 47.763,6.376 45.551,6.376L45.55,6.375ZM93.281,6.695C93.057,6.663 92.801,6.663 92.576,6.663C91.936,6.663 90.3,6.791 89.275,7.977L89.05,8.234L89.05,6.759L85.396,6.759L85.396,19.966L89.146,19.966L89.146,13.876C89.146,11.568 90.204,10.382 92.32,10.382C92.672,10.382 92.993,10.414 93.346,10.478L93.506,10.51L93.506,6.695L93.281,6.695ZM3.783,13.299C3.783,10.894 5.353,9.837 6.892,9.837C8.206,9.837 8.912,10.51 9.264,11.119L12.854,10.349C12.181,8.362 10.258,6.31 6.796,6.31C2.917,6.31 0,9.292 0,13.267C0,17.241 2.981,20.223 6.924,20.223C10.578,20.223 12.534,17.818 13.079,15.767L13.111,15.639L9.649,14.901C9.424,15.511 8.719,16.729 6.924,16.729C5.354,16.793 3.783,15.735 3.783,13.299ZM27.023,17.69L27.023,11.375C27.023,8.234 24.875,6.343 21.285,6.343C17.951,6.343 16.06,8.394 15.675,10.382L19.041,11.087C19.233,10.253 19.907,9.42 21.317,9.42C22.567,9.42 23.337,9.997 23.337,10.959C23.337,11.407 23.08,11.664 22.503,11.728L19.329,12.208C16.861,12.561 15.355,14.068 15.355,16.248C15.355,18.203 16.957,20.255 19.907,20.255C21.702,20.255 22.759,19.517 23.369,18.876L23.561,18.652L23.593,18.94C23.625,19.26 23.657,19.581 23.689,19.774L23.721,19.966L27.183,19.966L27.151,19.71C27.087,19.293 27.023,18.395 27.023,17.69ZM23.336,14.549C23.336,16.889 21.862,17.369 20.644,17.369C19.586,17.369 19.105,16.697 19.105,16.023C19.105,15.222 19.618,14.677 20.58,14.549L23.304,14.132L23.304,14.549L23.336,14.549ZM61.194,6.407C59.271,6.407 58.149,7.176 57.668,7.657L57.444,7.849L57.444,0.957L53.725,0.957L53.725,19.967L57.379,19.967L57.379,18.652L57.604,18.876C58.437,19.71 59.688,20.191 61.066,20.191C64.72,20.191 67.285,17.338 67.285,13.267C67.285,9.164 64.849,6.407 61.195,6.407L61.194,6.407ZM60.489,16.793C58.95,16.793 57.412,15.703 57.412,13.267C57.412,10.862 58.95,9.773 60.489,9.773C62.349,9.773 63.534,11.151 63.534,13.267C63.502,15.414 62.316,16.793 60.489,16.793ZM75.94,6.343C72.766,6.343 69.464,8.939 69.464,13.235C69.464,17.851 72.862,20.255 76.26,20.255C79.658,20.255 81.549,18.203 82.19,16.248L78.985,15.318C78.504,16.408 77.606,16.985 76.292,16.985C74.722,16.985 73.439,15.927 73.215,14.485L73.183,14.165L82.383,14.165L82.383,14.035C82.383,13.844 82.415,13.459 82.415,13.106C82.447,8.971 79.946,6.343 75.939,6.343L75.94,6.343ZM73.31,11.536L73.343,11.376C73.599,10.51 74.433,9.484 75.971,9.484C77.991,9.484 78.504,10.83 78.632,11.407L78.664,11.567L73.311,11.567L73.311,11.536L73.31,11.536ZM98.122,4.868C99.147,4.868 99.981,5.701 99.981,6.759C99.981,7.779 99.141,8.619 98.121,8.619C97.101,8.618 96.263,7.779 96.263,6.759C96.23,5.701 97.063,4.868 98.122,4.868ZM98.122,8.202C98.923,8.202 99.564,7.561 99.564,6.727C99.564,5.894 98.924,5.253 98.122,5.253C97.32,5.253 96.679,5.893 96.679,6.727C96.679,7.561 97.289,8.202 98.122,8.202Z" style="fill:rgb(252,175,23);fill-rule:nonzero;"/>
    </g>
    <g transform="matrix(1.21774,0,0,1.21774,30.1244,12.0846)">
        <path d="M98.09,7.016L97.962,7.016L97.962,7.656L97.512,7.656L97.512,5.83L98.218,5.83C98.571,5.83 98.828,6.086 98.828,6.407C98.828,6.631 98.699,6.856 98.475,6.92L98.827,7.625L98.347,7.625L98.09,7.015L98.09,7.016ZM98.186,6.663C98.346,6.663 98.443,6.567 98.443,6.439C98.443,6.279 98.346,6.182 98.186,6.182L97.962,6.182L97.962,6.663L98.186,6.663Z" style="fill:rgb(252,175,23);fill-rule:nonzero;"/>
    </g>
</svg>
