<?xml version="1.0" encoding="UTF-8" standalone="no"?>
<!DOCTYPE svg PUBLIC "-//W3C//DTD SVG 1.1//EN" "http://www.w3.org/Graphics/SVG/1.1/DTD/svg11.dtd">
<svg width="182" height="50" viewBox="0 0 182 50" version="1.1" xmlns="http://www.w3.org/2000/svg" xmlns:xlink="http://www.w3.org/1999/xlink" xml:space="preserve" xmlns:serif="http://www.serif.com/" style="fill-rule:evenodd;clip-rule:evenodd;stroke-linejoin:round;stroke-miterlimit:2;">
    <g transform="matrix(0.0732745,0,0,0.0732745,-1.18613,8.3667)">
        <path d="M2021.5,16.894C2022.33,15.933 2023.52,15.34 2024.79,15.247C2026.43,15.35 2027.72,16.729 2027.72,18.375C2027.72,18.484 2027.72,18.593 2027.71,18.702C2027.62,20.034 2027.03,21.285 2026.06,22.203C1982.47,76.408 1950.78,139.799 1950.78,227.717C1950.78,315.635 1982.63,377.697 2026.06,431.902C2027.03,432.821 2027.62,434.073 2027.71,435.406C2027.72,435.514 2027.72,435.622 2027.72,435.73C2027.72,437.375 2026.43,438.755 2024.79,438.858C2023.51,438.77 2022.33,438.176 2021.5,437.211L1835.68,257.5C1826.13,250.326 1820.49,239.053 1820.49,227.106C1820.49,215.16 1826.13,203.887 1835.68,196.713L2021.5,16.947" style="fill:rgb(237,28,36);fill-rule:nonzero;"/>
        <g>
            <path d="M2164.25,1.657C2091.52,1.657 2063.12,104.76 2063.12,227.665C2063.12,350.566 2091.52,452.343 2164.25,452.343C2207.9,452.343 2245.11,426.751 2245.27,405.728C2245.23,400.858 2243.2,396.211 2239.64,392.881C2218.94,372.919 2210.87,352.904 2210.76,335.277C2210.76,301.62 2239.86,276.559 2266.77,276.559C2303.93,276.559 2325.59,305.654 2325.59,343.293C2325.59,378.971 2310.36,408.754 2293.74,432.541C2293.12,433.427 2292.79,434.482 2292.78,435.564C2292.77,435.69 2292.76,435.818 2292.76,435.946C2292.76,437.516 2293.98,438.839 2295.55,438.963C2296.89,438.819 2298.12,438.174 2299,437.158L2484.81,257.448C2494.37,250.273 2500,239 2500,227.052C2500,215.105 2494.37,203.831 2484.81,196.657L2299,16.894C2298.12,15.878 2296.89,15.233 2295.55,15.09C2293.85,15.09 2292.79,16.629 2292.79,18.541C2292.79,19.623 2293.12,20.678 2293.74,21.564C2310.26,45.351 2325.6,75.079 2325.6,110.759C2325.6,148.398 2303.78,177.546 2266.77,177.546C2239.86,177.546 2210.66,152.433 2210.76,118.776C2210.76,101.201 2218.94,81.186 2239.64,61.171C2243.19,57.838 2245.23,53.193 2245.27,48.324C2245.27,27.088 2208.11,1.71 2164.25,1.71M264.255,303.742C263.916,286.289 272.207,269.747 286.391,259.573C302.851,248.487 322.413,242.909 342.244,243.645C355.43,243.48 368.528,245.821 380.839,250.545L380.839,229.309C380.522,208.072 372.505,196.074 348.669,195.812C341.001,196.068 333.407,197.389 326.103,199.738C326.901,202.737 327.328,205.822 327.377,208.924C327.534,215.655 325.209,222.214 320.847,227.344C316.179,232.455 309.508,235.287 302.588,235.095C289.319,234.953 278.481,223.999 278.481,210.73C278.481,210.622 278.482,210.515 278.483,210.407C278.801,184.659 310.018,167.352 351.747,167.3C384.874,167.3 405.632,175.156 416.782,189.44C426.868,202.286 427.402,220.975 427.402,247.414L427.402,316.431C427.402,329.756 435.153,333.365 451.716,335.968L453.628,335.968L453.628,337.88C452.672,356.035 439.292,363.573 424.959,364.69L421.242,364.69C406.65,365.095 393.156,356.714 387.051,343.454C371.766,356.6 352.416,364.1 332.263,364.69C293.769,364.69 264.52,338.676 264.467,303.103M1446.26,355.717C1442.82,350.257 1440.48,344.181 1439.36,337.828C1437.45,340.002 1435.22,342.285 1431.77,345.576C1418.87,357.788 1401.75,364.562 1383.98,364.477C1365.59,365.081 1347.84,357.491 1335.56,343.771C1318.74,323.652 1318.84,298.168 1318.84,261.96L1318.84,227.079C1318.47,212.958 1314.06,208.125 1300.95,207.807C1299.18,207.82 1297.4,207.926 1295.64,208.125L1294.1,208.125L1293.52,206.638C1292.53,204.246 1292.01,201.688 1291.98,199.1C1292.4,182.219 1313.75,173.191 1326.28,170.591C1330.41,169.824 1334.6,169.363 1338.8,169.212C1347.33,168.576 1355.67,171.979 1361.32,178.394C1366.13,185.231 1368.48,193.513 1367.95,201.86L1367.63,261.43C1367.63,283.409 1369.17,299.868 1374.06,310.484C1378.94,321.104 1386.43,325.934 1400.12,326.039C1412.22,326.823 1423.76,320.631 1429.8,310.114C1435.43,299.356 1438.14,287.31 1437.66,275.18L1437.66,226.971C1437.29,212.85 1432.83,208.02 1419.77,207.702C1417.99,207.713 1416.22,207.819 1414.46,208.02L1412.87,208.02L1412.28,206.533C1411.26,204.414 1410.61,202.132 1410.37,199.791C1410.8,182.907 1432.14,173.882 1444.72,171.282C1448.86,170.512 1453.05,170.05 1457.25,169.9C1465.79,169.274 1474.14,172.676 1479.81,179.085C1484.67,185.904 1487.04,194.195 1486.5,202.551C1486.5,209.399 1485.87,221.505 1485.87,272.259C1485.87,293.495 1485.5,305.124 1485.5,308.572C1485.81,323.174 1490.8,329.808 1504.29,329.808L1510.45,329.808L1511.03,331.295C1512,333.618 1512.53,336.105 1512.57,338.623C1512.04,355.082 1490.64,361.716 1478.22,364.159C1474.34,364.882 1470.42,365.325 1466.49,365.486C1458.69,366.09 1451.1,362.685 1446.37,356.461M769.198,269.446C768.336,242.52 777.842,216.263 795.742,196.13C814.037,177.091 839.533,166.618 865.928,167.3C887.883,166.43 909.18,175.065 924.329,190.979C936.398,204.3 943.115,221.632 943.174,239.608C943.329,248.853 941.136,257.988 936.802,266.155L936.219,267.216L819.209,267.216C821.173,301.351 842.888,325.243 880.743,325.616C898.639,325.738 915.783,318.312 927.937,305.176L929.211,303.581L930.858,304.803C935.673,308.364 938.309,314.18 937.814,320.148C937.814,339.845 914.613,365.06 863.485,365.06C863.483,365.06 863.48,365.06 863.477,365.06C811.751,365.06 769.186,322.496 769.186,270.769C769.186,270.346 769.189,269.922 769.195,269.499M1185.05,364.795C1159.65,365.111 1135.14,355.285 1116.99,337.507C1098.29,318.396 1088.08,292.516 1088.69,265.782C1088.69,265.337 1088.68,264.892 1088.68,264.448C1088.68,211.209 1132.49,167.4 1185.73,167.4C1186.06,167.4 1186.38,167.401 1186.7,167.404C1212.52,166.711 1237.56,176.482 1256.09,194.483C1274.96,213.126 1285.59,238.576 1285.59,265.101C1285.59,319.564 1240.77,364.379 1186.31,364.379C1185.91,364.379 1185.51,364.377 1185.11,364.372L1185.05,364.795ZM1544.63,359.061C1536.46,356.834 1531.21,352.374 1531.26,345.631C1531.38,342.655 1532.14,339.739 1533.49,337.081L1533.91,336.125L1534.92,336.125C1539.58,335.212 1543.95,333.233 1547.72,330.342C1552.6,326.36 1554.46,320.783 1554.46,305.124L1554.46,225.965C1554.09,212.693 1551.06,208.076 1540.02,207.755C1537.08,207.803 1534.14,208.123 1531.26,208.711L1529.56,209.029L1528.92,207.437C1527.84,204.753 1527.26,201.89 1527.22,198.995C1527.49,183.067 1544.74,175.103 1556.32,171.494C1560.54,170.145 1564.94,169.429 1569.38,169.369C1585.3,169.369 1593.69,180.68 1597.3,195.226C1607.6,178.289 1623.85,167.087 1640.25,167.034C1655.49,167.034 1670.78,177.016 1670.83,195.914C1671.4,210.384 1660.03,222.786 1645.56,223.47C1633.97,223.737 1623.72,215.681 1621.25,204.356C1612.33,207.277 1599.69,218.532 1599.58,257.448L1599.58,305.225C1599.58,320.833 1601.81,326.462 1606.22,330.391C1611.53,333.378 1617.34,335.341 1623.37,336.177L1624.38,336.177L1624.8,337.134C1626.27,340.003 1627.1,343.153 1627.25,346.371C1627.25,352.741 1622.52,356.988 1614.88,359.218C1603.6,361.781 1592.03,362.835 1580.47,362.352C1568.43,362.804 1556.39,361.697 1544.63,359.058M976.569,359.058C968.393,356.831 963.084,352.315 963.084,345.573C963.184,342.617 963.927,339.718 965.259,337.078L965.684,336.122L966.746,336.122C971.439,335.208 975.867,333.249 979.7,330.391C984.425,326.357 986.338,320.78 986.443,305.173L986.443,201.225L958.621,200.269L958.146,199.047C956.796,195.965 956.073,192.644 956.021,189.279C956.021,189.237 956.021,189.195 956.021,189.153C956.021,179.978 963.57,172.429 972.744,172.429C973.028,172.429 973.312,172.436 973.596,172.451L985.647,172.451L985.647,160.983C985.647,133.269 990.955,117.502 997.858,106.935C1008.48,90.106 1027.54,78.533 1056.26,78.533C1092.31,78.533 1122.57,95.309 1122.73,122.279C1122.74,122.563 1122.74,122.847 1122.74,123.132C1122.74,136.95 1111.43,148.347 1097.61,148.454C1084.41,148.262 1073.56,137.551 1073.19,124.349C1073.26,119.486 1074.69,114.738 1077.33,110.654C1072.11,106.938 1065.79,105.068 1059.39,105.343C1048.19,105.343 1042.08,109.273 1038.15,115.694C1034.12,123.935 1032.29,133.083 1032.85,142.242L1032.85,172.025L1080.62,172.025L1081.16,173.299C1082.51,176.453 1083.21,179.848 1083.23,183.28C1083.55,192.966 1076.2,201.345 1066.56,202.286C1063.03,202.587 1059.48,202.711 1055.94,202.656C1047.97,202.656 1040.01,202.073 1034.28,201.968L1034.28,304.75C1034.28,320.305 1036.88,325.987 1041.6,329.916C1046.33,333.846 1057.53,335.224 1061.09,335.702L1062.1,335.702L1062.52,336.711C1063.74,339.157 1064.41,341.837 1064.49,344.567C1064.49,351.683 1058.7,356.143 1049.94,358.53C1037.64,361.279 1025.05,362.44 1012.46,361.985C1000.37,362.444 988.267,361.337 976.461,358.691M643.055,358.691C634.93,356.461 629.674,352.001 629.73,345.258C629.872,342.302 630.631,339.409 631.957,336.764L632.383,335.807L633.444,335.807C638.137,334.893 642.565,332.933 646.398,330.073C651.124,326.039 653.088,320.465 653.141,304.858L653.141,225.965C652.771,212.693 649.637,208.076 638.647,207.755C635.704,207.803 632.772,208.123 629.887,208.711L628.191,209.029L627.552,207.437C626.416,204.71 625.821,201.789 625.8,198.835C626.066,182.907 643.32,175.103 655.001,171.494C659.154,170.152 663.483,169.436 667.847,169.369C683.775,169.369 692.27,180.519 695.986,194.853C706.603,178.129 722.852,167.087 739.042,166.982C754.066,166.982 769.516,176.908 769.568,195.809C770.132,210.355 758.631,222.791 744.085,223.362C732.541,223.632 722.351,215.553 719.983,204.251C710.958,207.224 698.161,218.427 698.004,257.34L698.004,305.124C698.004,320.731 700.338,326.36 705.011,330.286C710.273,333.32 716.082,335.287 722.105,336.073L723.114,336.073L723.592,337.029C725.01,339.872 725.807,342.984 725.93,346.159C725.93,352.531 721.205,356.778 713.506,359.061C702.194,361.642 690.59,362.713 678.997,362.247C666.959,362.703 654.913,361.597 643.16,358.956M485.589,358.956C477.465,356.726 472.264,352.266 472.264,345.523C472.381,342.57 473.122,339.675 474.439,337.029L474.865,336.073L475.926,336.073C480.619,335.159 485.047,333.2 488.88,330.342C493.606,326.304 495.57,320.731 495.623,305.124L495.623,225.965C495.197,212.693 492.119,208.076 481.077,207.755C478.133,207.803 475.201,208.123 472.317,208.711L470.617,209.029L469.979,207.437C468.843,204.71 468.248,201.789 468.227,198.835C468.492,182.907 485.746,175.103 497.427,171.494C501.563,170.155 505.875,169.439 510.221,169.369C526.149,169.369 534.644,180.519 538.36,194.8C548.977,178.129 565.226,167.087 581.419,166.979C596.44,166.979 611.942,176.911 611.998,195.861C612.564,210.409 601.062,222.847 586.514,223.417C574.975,223.668 564.795,215.596 562.41,204.303C553.385,207.277 540.59,218.479 540.482,257.395L540.482,305.173C540.482,320.783 542.765,326.412 547.49,330.342C552.751,333.381 558.562,335.348 564.587,336.128L565.648,336.128L566.074,337.084C567.512,339.922 568.326,343.036 568.461,346.214C568.461,352.587 563.683,356.834 555.985,359.116C544.673,361.697 533.069,362.768 521.476,362.299C509.439,362.753 497.394,361.647 485.642,359.008M1142.69,260.421C1142.69,312.184 1165.31,334.481 1187.39,334.746C1212.61,334.746 1230.87,312.446 1231.03,268.863C1231.03,246.085 1225.99,227.874 1217.76,215.771C1210.98,204.265 1198.67,197.092 1185.32,196.87C1159.09,196.87 1142.85,220.601 1142.85,260.899M350.899,271.834C330.085,271.834 316.122,281.815 316.014,301.142C316.014,319.401 328.441,331.668 347.87,331.773C360.967,331.296 373.219,325.103 381.37,314.84L381.37,288.292C380.836,283.703 377.988,279.692 373.832,277.675C366.814,273.851 358.883,272.014 350.899,272.364M889.342,241.042C893.056,241.042 894.064,240.138 894.647,238.92C895.454,236.714 895.763,234.356 895.551,232.017C895.298,212.944 879.537,197.391 860.463,197.391C860.196,197.391 859.93,197.394 859.664,197.4C832.533,197.4 821.544,219.115 819.844,241.045L889.129,241.045L889.342,241.042ZM53.91,330.767C31.023,307.295 16.268,272.999 16.268,230.314C15.549,193.627 28.846,158.011 53.432,130.771C75.324,106.692 106.313,92.826 138.855,92.549C196.777,92.549 237.655,133.161 237.867,168.203C237.867,186.944 225.977,201.438 209.941,201.49C202.276,201.61 194.847,198.798 189.183,193.631C183.321,187.939 180.119,180.032 180.371,171.865C180.546,163.409 184.082,155.363 190.192,149.515C182.336,136.082 167.259,125.466 143.632,125.466C123.565,125.466 106.468,136.082 94.47,154.24C82.472,172.395 75.094,198.887 75.094,230.055C75.094,261.223 82.579,287.336 95.108,305.599C107.637,323.865 124.891,334.216 144.959,334.268C168.585,334.268 183.662,323.652 191.256,310.167C185.19,304.336 181.674,296.333 181.484,287.922C181.244,279.739 184.444,271.82 190.3,266.1C195.962,260.924 203.388,258.095 211.058,258.191C226.986,258.191 238.928,272.632 238.984,291.318C238.984,326.517 197.89,366.867 139.968,367.025C107.555,367.082 76.466,353.99 53.857,330.764M53.857,330.764C30.974,307.298 16.215,273.003 16.215,230.317C15.497,193.63 28.794,158.014 53.379,130.774C75.271,106.694 106.26,92.827 138.802,92.549C196.721,92.549 237.602,133.161 237.812,168.203C237.812,186.944 225.921,201.438 209.889,201.49C202.223,201.61 194.794,198.798 189.131,193.631C183.268,187.939 180.067,180.032 180.318,171.865C180.494,163.409 184.03,155.363 190.139,149.515C182.336,136.082 167.259,125.466 143.632,125.466C123.565,125.466 106.468,136.082 94.47,154.24C82.472,172.395 75.094,198.887 75.094,230.055C75.094,261.223 82.579,287.336 95.108,305.599C107.637,323.865 124.891,334.216 144.959,334.268C168.585,334.268 183.662,323.652 191.256,310.167C185.19,304.336 181.674,296.333 181.484,287.922C181.244,279.739 184.444,271.82 190.3,266.1C195.962,260.924 203.388,258.095 211.058,258.191C226.986,258.191 238.928,272.632 238.984,291.318C238.984,326.517 197.89,366.867 139.968,367.025C107.555,367.082 76.466,353.99 53.857,330.764M53.857,330.764C30.974,307.298 16.215,273.003 16.215,230.317C15.497,193.63 28.794,158.014 53.379,130.774C75.271,106.694 106.26,92.827 138.802,92.549C196.721,92.549 237.602,133.161 237.812,168.203C237.812,186.944 225.921,201.438 209.889,201.49C202.223,201.61 194.794,198.798 189.131,193.631C183.268,187.939 180.067,180.032 180.318,171.865C180.494,163.409 184.03,155.363 190.139,149.515C182.336,136.082 167.259,125.466 143.632,125.466C123.565,125.466 106.468,136.082 94.47,154.24C82.472,172.395 75.094,198.887 75.094,230.055C75.094,261.223 82.579,287.336 95.108,305.599C107.637,323.865 124.891,334.216 144.959,334.268C168.585,334.268 183.662,323.652 191.256,310.167C185.19,304.336 181.674,296.333 181.484,287.922C181.244,279.739 184.444,271.82 190.3,266.1C195.962,260.924 203.388,258.095 211.058,258.191C226.986,258.191 238.928,272.632 238.984,291.318C238.984,326.517 197.89,366.867 139.968,367.025C107.555,367.082 76.466,353.99 53.857,330.764" style="fill:rgb(0,91,171);fill-rule:nonzero;"/>
        </g>
    </g>
</svg>
