<?xml version="1.0" encoding="UTF-8" standalone="no"?>
<!DOCTYPE svg PUBLIC "-//W3C//DTD SVG 1.1//EN" "http://www.w3.org/Graphics/SVG/1.1/DTD/svg11.dtd">
<svg width="182" height="50" viewBox="0 0 182 50" version="1.1" xmlns="http://www.w3.org/2000/svg" xmlns:xlink="http://www.w3.org/1999/xlink" xml:space="preserve" xmlns:serif="http://www.serif.com/" style="fill-rule:evenodd;clip-rule:evenodd;stroke-linejoin:round;stroke-miterlimit:2;">
    <g transform="matrix(1,0,0,1,16.1005,-42.6211)">
        <path d="M35.101,79.314C34.045,79.749 32.702,78.624 31.283,76.915L25.103,69.355C24.267,68.299 23.613,67.9 22.85,68.152C21.905,68.48 21.286,69.101 21.286,69.936L21.286,76.989C21.286,78.223 20.16,79.388 18.596,79.388C16.997,79.388 15.906,78.223 15.906,76.768L15.906,57.903C15.906,56.375 17.177,55.249 18.631,55.249C20.121,55.249 21.286,56.303 21.286,57.794L21.286,60.374C21.286,61.794 23.032,61.901 23.685,61.356C24.305,60.811 29.391,56.046 29.391,56.046C30.377,55.106 31.283,55.106 31.792,55.429C32.409,55.83 32.447,56.775 31.832,57.794L30.229,60.374C29.247,61.974 28.63,63.027 29.286,64.337L35.064,75.751C35.867,77.35 36.303,78.841 35.101,79.314M46.706,76.916C46.305,78.259 45.361,79.387 44.126,79.387C42.887,79.387 42.018,78.223 41.582,76.879L37.582,64.628C37.145,63.247 37.621,61.286 39.543,61.286L39.799,61.286C41.218,61.286 41.799,62.517 42.198,63.864L43.98,70.007C44.56,72.008 46.016,72.225 46.524,70.08L48.053,63.538C48.269,62.556 48.816,61.286 50.049,61.286C51.25,61.286 51.797,62.556 52.234,63.901L53.723,68.518C54.087,69.717 55.286,70.008 55.906,68.555L58.085,63.499C58.705,62.082 59.103,61.286 60.048,61.286C61.175,61.286 60.991,62.776 60.629,64.083L57.029,76.916C56.667,78.259 55.65,79.387 54.485,79.387C53.286,79.387 52.413,78.191 51.943,76.879L49.941,71.138C49.941,71.138 49.759,70.335 49.177,70.335C48.597,70.335 48.415,71.28 48.415,71.28L46.705,76.916L46.706,76.916ZM70.87,72.842C70.87,73.427 70.98,75.098 70.398,75.569C70.033,75.899 69.562,76.151 68.688,76.151C67.961,76.151 67.091,75.899 66.725,75.609C66.255,75.207 65.818,74.629 65.818,73.754C65.818,72.553 66.69,71.209 68.795,71.209C70.47,71.209 70.87,72.114 70.87,72.842ZM76.068,68.916C76.068,64.228 73.671,61.286 68.325,61.286C67.052,61.286 65.89,61.537 65.455,62.338C65.018,63.173 65.527,63.899 66.217,64.118C67.559,64.593 70.361,65.134 70.757,66.482C70.757,66.482 71.09,67.536 70.544,67.934C70.144,68.224 70.033,68.409 68.869,68.298C68.869,68.298 67.744,68.151 67.128,68.151C61.963,68.151 60.075,70.879 60.075,73.605C60.075,76.335 61.672,79.387 66.909,79.387C68.795,79.387 70.144,78.297 70.144,78.297C71.161,77.207 71.85,78.041 71.85,78.041C72.54,78.768 73.052,79.387 74.106,79.387C75.486,79.387 76.068,78.297 76.068,77.425L76.068,68.916ZM89.183,72.189L89.183,72.226C89.183,74.769 88.383,76.225 86.857,76.225C85.473,76.225 84.71,75.135 83.801,72.369C82.93,69.68 82.821,68.336 83.293,67.317C83.691,66.442 84.639,65.719 86.165,65.719C87.292,65.719 87.982,66.336 88.491,67.138C89.254,68.299 89.183,70.808 89.183,72.188M91.618,77.933C93.073,76.806 94.088,75.136 94.128,72.953C94.128,72.189 94.088,57.903 94.088,57.903C94.088,56.523 92.926,55.43 91.509,55.43C90.092,55.43 88.859,56.63 88.859,58.012L88.859,60.556C88.859,62.156 88.091,62.409 87.036,61.863C87.036,61.863 86.276,61.285 84.823,61.285C79.476,61.285 77.84,66.191 77.84,70.59C77.84,74.99 80.384,79.278 85.621,79.388C88.745,79.423 90.455,78.876 91.618,77.933M101.147,63.1C101.403,64.01 101.913,63.826 103.255,62.407C103.255,62.407 103.983,61.285 106.419,61.285C108.417,61.285 109.944,62.262 109.944,64.19C109.944,65.973 108.528,66.99 106.927,66.773C104.783,66.442 104.711,64.665 102.601,65.175C101.621,65.428 101.477,66.442 101.477,67.79L101.477,76.916C101.477,78.298 100.312,79.386 98.896,79.386C97.476,79.386 96.348,78.298 96.348,76.916L96.348,63.646C96.348,62.047 97.512,61.286 98.818,61.286C100.13,61.286 100.859,62.009 101.147,63.099M129.458,60.302C130.295,60.302 130.985,60.63 131.565,61.139L131.893,61.503C132.656,62.336 133.893,63.902 133.893,67.536C133.893,74.152 129.241,79.386 122.188,79.386C115.065,79.351 110.989,74.006 110.989,67.316C110.989,61.066 115.608,55.25 121.316,55.25C122.951,55.25 124.004,55.356 124.73,55.577L125.24,55.719C126.296,56.011 127.203,56.885 127.203,57.793C127.203,58.992 126.04,59.901 124.659,59.901C124.477,59.901 123.606,59.792 123.459,59.792C119.608,59.902 118.334,63.5 118.334,66.701C118.334,71.97 120.257,75.099 123.931,75.099C126.477,75.099 128.983,71.899 128.983,67.609C128.983,64.956 127.893,63.355 127.676,62.301C127.456,61.285 128.041,60.302 129.458,60.302" style="fill:rgb(196,214,0);"/>
    </g>
</svg>
