<?xml version="1.0" encoding="UTF-8" standalone="no"?>
<!DOCTYPE svg PUBLIC "-//W3C//DTD SVG 1.1//EN" "http://www.w3.org/Graphics/SVG/1.1/DTD/svg11.dtd">
<svg width="182" height="50" viewBox="0 0 182 50" version="1.1" xmlns="http://www.w3.org/2000/svg" xmlns:xlink="http://www.w3.org/1999/xlink" xml:space="preserve" xmlns:serif="http://www.serif.com/" style="fill-rule:evenodd;clip-rule:evenodd;stroke-linejoin:round;stroke-miterlimit:2;">
    <g id="Logo-VDS_Landscape_Logo" serif:id="Logo/VDS_Landscape_Logo" transform="matrix(0.798108,0,0,0.798108,-1.42109e-14,2.64338)">
        <g id="Symbols">
            <g id="COMPS---header-04-iconen" serif:id="COMPS-/-header-04-iconen">
                <g id="Logo-VDS_Landscape_Logo1" serif:id="Logo/VDS_Landscape_Logo">
                    <g id="Group-30">
                        <path id="Fill-1" d="M154.037,28.282C154.037,27.057 152.996,26.066 151.712,26.066L148.722,26.066L148.722,22.265L153.373,22.265C153.741,22.265 154.037,21.985 154.037,21.634L154.037,18.469L146.399,18.469C145.113,18.469 144.072,19.462 144.072,20.684L144.072,27.65C144.072,28.872 145.113,29.864 146.399,29.864L149.387,29.864L149.387,33.664L144.072,33.664L144.072,36.829C144.072,37.178 144.37,37.464 144.736,37.464L151.712,37.464C152.996,37.461 154.037,36.47 154.037,35.248L154.037,28.282Z" style="fill:rgb(143,144,154);"/>
                        <path id="Fill-3" d="M125.365,22.266L125.365,18.469L118.389,18.469C117.104,18.469 116.064,19.462 116.064,20.685L116.064,35.246C116.064,36.47 117.104,37.461 118.389,37.461L124.7,37.463C125.069,37.463 125.365,37.177 125.365,36.829L125.365,33.664L120.715,33.664L120.715,29.865L125.365,29.865L125.365,26.066L120.715,26.066L120.715,22.266L125.365,22.266Z" style="fill:rgb(143,144,154);"/>
                        <path id="Fill-5" d="M62.03,28.602C62.03,30.498 61.383,32.399 60.715,33.03C60.052,32.399 59.375,30.498 59.375,28.602L59.375,18.468L54.725,18.468L54.725,27.964C54.725,33.64 58.061,37.461 58.061,37.461L63.366,37.461C63.366,37.461 66.684,33.64 66.684,27.964L66.684,18.468L62.03,18.468L62.03,28.602Z" style="fill:rgb(143,144,154);"/>
                        <path id="Fill-7" d="M77.375,28.598L74.717,28.598L74.717,22.901C74.717,22.55 75.017,22.266 75.383,22.266L76.712,22.266C77.078,22.266 77.375,22.55 77.375,22.901L77.375,28.598ZM79.702,18.468L72.38,18.468L72.38,18.469C71.102,18.477 70.069,19.465 70.069,20.685L70.069,37.463L74.717,37.463L74.717,32.398L77.375,32.398L77.375,37.463L82.026,37.463L82.026,20.685C82.026,19.462 80.987,18.468 79.702,18.468Z" style="fill:rgb(143,144,154);"/>
                        <path id="Fill-9" d="M212.708,22.266L212.708,18.469L205.734,18.469C204.45,18.469 203.407,19.462 203.407,20.685L203.407,35.246C203.407,36.47 204.45,37.461 205.734,37.461L212.044,37.463C212.411,37.463 212.708,37.177 212.708,36.829L212.708,33.664L208.058,33.664L208.058,29.865L212.708,29.865L212.708,26.066L208.058,26.066L208.058,22.266L212.708,22.266Z" style="fill:rgb(143,144,154);"/>
                        <path id="Fill-11" d="M164.717,28.598L162.059,28.598L162.059,22.901C162.059,22.55 162.358,22.266 162.725,22.266L164.053,22.266C164.419,22.266 164.717,22.55 164.717,22.901L164.717,28.598ZM167.044,18.468L159.722,18.468L159.722,18.469C158.444,18.477 157.409,19.465 157.409,20.685L157.409,37.463L162.059,37.463L162.059,32.398L164.717,32.398L164.717,37.463L169.368,37.463L169.368,20.685C169.368,19.462 168.328,18.468 167.044,18.468Z" style="fill:rgb(143,144,154);"/>
                        <path id="Fill-13" d="M95.032,18.47L92.707,18.47C91.055,18.47 90.051,19.941 90.051,21.633L90.051,19.101C90.051,18.752 89.752,18.47 89.387,18.47L85.4,18.47L85.4,37.463L90.051,37.463L90.051,22.902C90.051,22.55 90.349,22.267 90.715,22.267L92.043,22.267C92.411,22.267 92.707,22.55 92.707,22.902L92.707,37.468L97.358,37.468L97.358,20.685C97.358,19.462 96.317,18.47 95.032,18.47" style="fill:rgb(143,144,154);"/>
                        <path id="Fill-15" d="M136.048,22.901L136.048,25.434C136.046,25.783 135.747,26.066 135.382,26.066L133.389,26.066L133.389,22.901C133.389,22.551 133.687,22.266 134.054,22.266L135.382,22.266C135.75,22.266 136.048,22.551 136.048,22.901ZM140.696,20.685C140.696,19.462 139.657,18.47 138.373,18.47L136.048,18.47C134.394,18.47 133.389,19.94 133.389,21.633L133.389,19.1C133.389,18.752 133.093,18.47 132.726,18.47L128.738,18.47L128.738,37.463L133.389,37.463L133.389,29.864L135.382,29.864C135.747,29.864 136.048,30.148 136.048,30.497L136.048,36.829C136.048,37.177 136.344,37.462 136.71,37.462L136.71,37.463L140.696,37.463L140.696,30.182C140.696,28.958 139.657,27.965 138.373,27.965L138.371,27.965C139.657,27.965 140.696,26.973 140.696,25.749L140.696,20.685Z" style="fill:rgb(143,144,154);"/>
                        <path id="Fill-17" d="M182.374,18.47L180.05,18.47C178.397,18.47 177.392,19.941 177.392,21.633L177.392,19.101C177.392,18.752 177.095,18.47 176.728,18.47L172.742,18.47L172.742,37.463L177.392,37.463L177.392,22.902C177.392,22.55 177.69,22.267 178.055,22.267L179.385,22.267C179.75,22.267 180.05,22.55 180.05,22.902L180.05,37.473L184.701,37.473L184.701,20.685C184.701,19.462 183.659,18.47 182.374,18.47" style="fill:rgb(143,144,154);"/>
                        <path id="Fill-19" d="M225.714,18.47L223.389,18.47C221.737,18.47 220.731,19.941 220.731,21.633L220.731,19.101C220.731,18.752 220.433,18.47 220.066,18.47L216.08,18.47L216.08,37.463L220.731,37.463L220.731,22.902C220.731,22.55 221.027,22.267 221.398,22.267L222.723,22.267C223.091,22.267 223.389,22.55 223.389,22.902L223.389,37.469L228.039,37.469L228.039,20.685C228.039,19.462 226.998,18.47 225.714,18.47" style="fill:rgb(143,144,154);"/>
                        <path id="Fill-22" d="M108.04,33.029C108.039,33.377 107.743,33.664 107.375,33.664L106.048,33.664C105.681,33.664 105.382,33.377 105.382,33.029L105.382,22.266L107.376,22.266C107.743,22.266 108.039,22.55 108.04,22.901L108.04,33.029ZM110.365,18.469L100.734,18.469L100.734,37.461L104.72,37.461C105.086,37.461 105.382,37.177 105.382,36.828L105.382,34.298C105.382,35.99 106.387,37.464 108.04,37.464L110.36,37.461L110.363,37.464C111.649,37.464 112.691,36.469 112.691,35.248L112.691,20.685C112.691,19.461 111.649,18.469 110.365,18.469Z" style="fill:rgb(143,144,154);"/>
                        <path id="Fill-24" d="M195.381,33.029C195.381,33.377 195.085,33.664 194.717,33.664L193.387,33.664C193.022,33.664 192.723,33.377 192.723,33.029L192.723,22.266L194.717,22.266C195.085,22.266 195.381,22.55 195.381,22.901L195.381,33.029ZM197.708,18.469L188.074,18.469L188.074,37.461L192.06,37.461C192.425,37.461 192.723,37.177 192.723,36.828L192.723,34.298C192.723,35.99 193.729,37.464 195.381,37.464L197.7,37.461C197.704,37.461 197.704,37.464 197.704,37.464C198.993,37.464 200.031,36.469 200.031,35.248L200.031,20.685C200.031,19.461 198.993,18.469 197.708,18.469Z" style="fill:rgb(143,144,154);"/>
                        <path id="Fill-26" d="M0,12.274L16.516,37.48L19.477,18.503L15.171,12.964C9.58,13.412 4.39,13.003 0,12.274" style="fill:rgb(143,144,154);"/>
                        <path id="Fill-28" d="M25.901,11.065L16.515,37.48L35.334,37.48L54.725,0.001C46.454,3.868 35.495,8.528 25.901,11.065" style="fill:rgb(143,144,154);"/>
                    </g>
                </g>
            </g>
        </g>
    </g>
</svg>
